<svg width="71" height="60" viewBox="0 0 71 60" fill="none" xmlns="http://www.w3.org/2000/svg">
<circle cx="48" cy="24" r="23" fill="#DFEFDD"/>
<g clip-path="url(#clip0)">
<path d="M41.8652 11.2051C41.8652 8.07175 39.3159 5.52246 36.1826 5.52246C33.0487 5.52246 30.4994 8.07175 30.4994 11.2051C30.4994 14.339 33.0487 16.8883 36.1826 16.8883C39.3159 16.8883 41.8652 14.339 41.8652 11.2051V11.2051ZM32.2563 11.2051C32.2563 9.04037 34.0178 7.27936 36.1826 7.27936C38.3473 7.27936 40.1083 9.04037 40.1083 11.2051C40.1083 13.3704 38.3473 15.1314 36.1826 15.1314C34.0178 15.1314 32.2563 13.3699 32.2563 11.2051Z" fill="#223645"/>
<path d="M26.5027 8.19244C26.9879 8.19244 27.3811 7.79922 27.3811 7.314C27.3811 6.82877 26.9879 6.43555 26.5027 6.43555H24.1933C23.708 6.43555 23.3148 6.82877 23.3148 7.314C23.3148 7.79922 23.708 8.19244 24.1933 8.19244H26.5027Z" fill="#223645"/>
<path d="M6.82938 8.19244H18.5023C18.9876 8.19244 19.3808 7.79922 19.3808 7.314C19.3808 6.82877 18.9876 6.43555 18.5023 6.43555H6.82938C6.34415 6.43555 5.95093 6.82877 5.95093 7.314C5.95093 7.79922 6.34415 8.19244 6.82938 8.19244Z" fill="#223645"/>
<path d="M6.82938 15.9747H9.83963C10.3249 15.9747 10.7181 15.5815 10.7181 15.0962C10.7181 14.611 10.3249 14.2178 9.83963 14.2178H6.82938C6.34415 14.2178 5.95093 14.611 5.95093 15.0962C5.95093 15.5815 6.34415 15.9747 6.82938 15.9747Z" fill="#223645"/>
<path d="M15.531 14.2178C15.0458 14.2178 14.6526 14.611 14.6526 15.0962C14.6526 15.5815 15.0458 15.9747 15.531 15.9747H17.4339C17.9192 15.9747 18.3124 15.5815 18.3124 15.0962C18.3124 14.611 17.9192 14.2178 17.4339 14.2178H15.531Z" fill="#223645"/>
<path d="M6.82938 12.0836H26.5027C26.9879 12.0836 27.3811 11.6903 27.3811 11.2051C27.3811 10.7199 26.9879 10.3267 26.5027 10.3267H6.82938C6.34415 10.3267 5.95093 10.7199 5.95093 11.2051C5.95093 11.6903 6.34415 12.0836 6.82938 12.0836Z" fill="#223645"/>
<path d="M9.13239 26.6403H38.6842C40.4384 26.6403 41.8652 25.213 41.8652 23.4588C41.8652 21.7047 40.4384 20.2778 38.6842 20.2778H9.13239C7.37823 20.2778 5.95093 21.7047 5.95093 23.4588C5.95093 25.213 7.37823 26.6403 9.13239 26.6403V26.6403ZM9.13239 22.0347H38.6842C39.4693 22.0347 40.1083 22.6733 40.1083 23.4588C40.1083 24.2444 39.4693 24.8834 38.6842 24.8834H9.13239C8.34686 24.8834 7.70782 24.2444 7.70782 23.4588C7.70782 22.6733 8.34686 22.0347 9.13239 22.0347V22.0347Z" fill="#223645"/>
<path d="M9.13239 34.6984H38.6842C40.4384 34.6984 41.8652 33.2711 41.8652 31.5169C41.8652 29.7628 40.4384 28.3359 38.6842 28.3359H9.13239C7.37823 28.3359 5.95093 29.7628 5.95093 31.5169C5.95093 33.2711 7.37823 34.6984 9.13239 34.6984V34.6984ZM9.13239 30.0928H38.6842C39.4693 30.0928 40.1083 30.7319 40.1083 31.5169C40.1083 32.3025 39.4693 32.9415 38.6842 32.9415H9.13239C8.34686 32.9415 7.70782 32.3025 7.70782 31.5169C7.70782 30.7319 8.34686 30.0928 9.13239 30.0928V30.0928Z" fill="#223645"/>
<path d="M9.13239 42.7565H38.6842C40.4384 42.7565 41.8652 41.3297 41.8652 39.5755C41.8652 37.8214 40.4384 36.394 38.6842 36.394H9.13239C7.37823 36.394 5.95093 37.8214 5.95093 39.5755C5.95093 41.3297 7.37823 42.7565 9.13239 42.7565V42.7565ZM9.13239 38.1509H38.6842C39.4693 38.1509 40.1083 38.79 40.1083 39.5755C40.1083 40.3606 39.4693 40.9996 38.6842 40.9996H9.13239C8.34686 40.9996 7.70782 40.3606 7.70782 39.5755C7.70782 38.79 8.34686 38.1509 9.13239 38.1509V38.1509Z" fill="#223645"/>
<path d="M9.13239 50.8146H29.8622C31.6164 50.8146 33.0437 49.3878 33.0437 47.6336C33.0437 45.8795 31.6164 44.4521 29.8622 44.4521H9.13239C7.37823 44.4521 5.95093 45.8795 5.95093 47.6336C5.95093 49.3878 7.37823 50.8146 9.13239 50.8146V50.8146ZM9.13239 46.209H29.8622C30.6477 46.209 31.2863 46.8481 31.2863 47.6336C31.2863 48.4191 30.6477 49.0577 29.8622 49.0577H9.13239C8.34686 49.0577 7.70782 48.4191 7.70782 47.6336C7.70782 46.8481 8.34686 46.209 9.13239 46.209Z" fill="#223645"/>
<path d="M57.2507 46.9574H53.931V44.0254C53.931 43.2761 53.4787 42.6311 52.8337 42.3463L54.1209 36.4458C54.4904 34.7502 54.0422 32.9471 52.9207 31.6223C51.8518 30.3598 50.2904 29.6356 48.636 29.6356C48.3595 29.6356 48.0858 29.6576 47.8162 29.697V2.91824C47.8162 1.3092 46.507 0 44.8979 0H2.91824C1.3092 0 0 1.3092 0 2.91824V12.3427C0 12.8279 0.393219 13.2211 0.878449 13.2211C1.36368 13.2211 1.7569 12.8279 1.7569 12.3427V2.91824C1.7569 2.27783 2.27783 1.7569 2.91824 1.7569H44.8979C45.5383 1.7569 46.0593 2.27783 46.0593 2.91824V30.2623C45.4143 30.5956 44.8325 31.0538 44.3509 31.6223C43.6871 32.4069 43.2513 33.3582 43.0911 34.373C43.0151 34.8523 43.3424 35.3023 43.8213 35.3778C44.3015 35.4538 44.7505 35.1265 44.8265 34.6472C44.9364 33.95 45.2357 33.2964 45.6921 32.7576C46.4264 31.8901 47.4994 31.3925 48.636 31.3925C49.7726 31.3925 50.8456 31.8901 51.5799 32.7576C52.3503 33.6676 52.6584 34.9063 52.4043 36.0713L51.0695 42.1902H46.2025L45.3827 38.4311C45.2792 37.9573 44.8119 37.657 44.3372 37.76C43.8629 37.8635 43.5626 38.3318 43.6661 38.8055L44.4383 42.3463C43.7929 42.6311 43.3406 43.2761 43.3406 44.0254V46.9574H40.0214C38.5052 46.9574 37.2716 48.1906 37.2716 49.7067V51.9452C37.2716 53.4613 38.5052 54.6945 40.0214 54.6945H40.0681L40.6013 57.0612C40.6966 57.4832 40.8591 57.8737 41.0765 58.223H2.91824C2.27783 58.223 1.7569 57.702 1.7569 57.0616V16.3737C1.7569 15.8885 1.36368 15.4953 0.878449 15.4953C0.393219 15.4953 0 15.8885 0 16.3737V57.0616C0 58.6707 1.3092 59.9803 2.91824 59.9803L53.0347 59.9689C54.7897 59.9689 56.2852 58.7732 56.6707 57.0612L57.204 54.6945H57.2507C58.7663 54.6945 60 53.4613 60 51.9452V49.7067C60 48.1906 58.7663 46.9574 57.2507 46.9574V46.9574ZM45.0975 44.0254C45.0975 43.9824 45.1328 43.9471 45.1758 43.9471H52.0963C52.1393 43.9471 52.1741 43.9824 52.1741 44.0254V46.9574H45.0975V44.0254ZM54.9568 56.6748C54.7527 57.5803 53.9626 58.212 53.0347 58.212H44.2374C43.3095 58.212 42.5194 57.5803 42.3152 56.6748L41.8694 54.6945H55.4027L54.9568 56.6748ZM58.2431 51.9452C58.2431 52.4922 57.7977 52.9376 57.2507 52.9376H40.0214C39.4743 52.9376 39.0289 52.4922 39.0289 51.9452V49.7067C39.0289 49.1592 39.4743 48.7143 40.0214 48.7143H57.2507C57.7982 48.7143 58.2431 49.1592 58.2431 49.7067V51.9452Z" fill="#223645"/>
</g>
<defs>
<clipPath id="clip0">
<rect width="60" height="60" fill="white"/>
</clipPath>
</defs>
</svg>
