<svg width="71" height="60" viewBox="0 0 71 60" fill="none" xmlns="http://www.w3.org/2000/svg">
<circle cx="48" cy="32" r="23" fill="#DFEFDD"/>
<path d="M27.3052 52.5045C26.8149 52.5045 26.3672 52.1873 26.2018 51.7269C26.0387 51.2727 26.1785 50.7514 26.5467 50.4393C26.9312 50.1136 27.4943 50.0714 27.923 50.337C28.3325 50.5907 28.5486 51.089 28.4535 51.5612C28.3447 52.1015 27.8577 52.5045 27.3052 52.5045Z" fill="#223645"/>
<path d="M21.0103 58.0335C20.7419 58.0335 20.474 57.9416 20.2565 57.759C19.647 57.2472 5.29715 45.1742 2.43993 40.8389C0.61007 38.062 -0.136287 35.5157 0.0202732 32.5831C0.178123 29.6347 1.42639 26.8661 3.53538 24.7875C5.6752 22.6781 8.46903 21.5166 11.4021 21.5166C15.9353 21.5166 19.4145 24.8876 21.0125 26.7828C22.6582 24.8992 26.2208 21.5166 30.5801 21.5166C33.5134 21.5166 36.3074 22.6781 38.4473 24.7874C40.5564 26.8661 41.8048 29.6347 41.9625 32.5828C42.1636 36.3325 40.7758 38.9641 39.5441 40.8377C38.7997 41.9696 33.0809 47.4591 31.9419 48.548C31.4741 48.9952 30.7322 48.9788 30.2851 48.511C29.8378 48.0432 29.8544 47.3014 30.3221 46.8541C33.5802 43.7389 37.1879 40.1551 37.5856 39.5502C39.143 37.1807 39.752 35.1344 39.6221 32.7081C39.3609 27.8293 35.3047 23.8602 30.58 23.8602C25.8703 23.8602 21.9892 29.2982 21.9507 29.3532C21.7279 29.6696 21.3636 29.8561 20.9764 29.8505C20.5893 29.8452 20.23 29.6493 20.0159 29.3268C19.9803 29.2736 16.3075 23.8602 11.4021 23.8602C6.67784 23.8602 2.6218 27.8293 2.36059 32.708C2.23263 35.1078 2.86074 37.2178 4.39693 39.5493C6.72413 43.0803 18.0666 52.8243 21.0465 55.3571L22.7331 54.0638C23.2466 53.6701 23.9823 53.767 24.3762 54.2807C24.7699 54.7944 24.6729 55.5299 24.1593 55.9238L21.7233 57.7916C21.5125 57.9532 21.2612 58.0335 21.0103 58.0335V58.0335Z" fill="#223645"/>
<path d="M17.4091 18.8852C17.1412 18.8852 16.8735 18.7938 16.6555 18.6107C15.9962 18.057 10.1783 13.1468 8.92778 11.2496C8.39107 10.4351 7.68889 9.14197 7.78592 7.3229C7.9467 4.3193 10.3737 1.9668 13.3112 1.9668C15.0989 1.9668 16.5307 3.02323 17.4106 3.89919C18.3021 3.02334 19.7402 1.9668 21.4905 1.9668C24.4281 1.9668 26.8552 4.3193 27.016 7.32266C27.1133 9.13752 26.4116 10.4323 25.8752 11.2483C24.6169 13.1617 18.8198 18.0583 18.1629 18.6104C17.9452 18.7936 17.6772 18.8852 17.4091 18.8852ZM13.3114 4.31051C11.6478 4.31051 10.2189 5.71803 10.1262 7.44782C10.0793 8.33023 10.3061 9.0815 10.8849 9.95993C11.6133 11.0651 14.9414 14.0693 17.4089 16.1771C19.8672 14.0748 23.1839 11.0755 23.917 9.96075C24.496 9.07975 24.7232 8.32812 24.676 7.44805C24.5834 5.71803 23.1545 4.31063 21.4907 4.31063C20.1168 4.31063 18.7354 5.83428 18.36 6.36806C18.1373 6.68435 17.7774 6.8729 17.3857 6.8654C16.9986 6.86013 16.6393 6.66419 16.4252 6.3417C16.046 5.77909 14.7423 4.31051 13.3114 4.31051V4.31051Z" fill="#223645"/>
<path d="M46.043 27.6973C45.7752 27.6973 45.5074 27.6059 45.2894 27.4229C44.2981 26.5904 35.5516 19.2091 33.7054 16.408C32.9397 15.2458 31.9376 13.403 32.0751 10.8264C32.1825 8.81889 33.0322 6.93419 34.4679 5.51917C35.9278 4.08013 37.8352 3.2876 39.839 3.2876C42.6573 3.2876 44.8643 5.17956 46.0494 6.4815C47.2636 5.18683 49.5076 3.2876 52.2224 3.2876C54.2262 3.2876 56.1337 4.08013 57.5937 5.51917C59.0293 6.93419 59.8793 8.81889 59.9866 10.8262C60.1228 13.368 59.1875 15.1438 58.3575 16.4067C56.4675 19.2803 47.191 27.0915 46.797 27.4225C46.579 27.6058 46.311 27.6973 46.043 27.6973V27.6973ZM39.8391 5.63132C37.0055 5.63132 34.5727 8.01792 34.4155 10.9513C34.3369 12.4261 34.7099 13.6724 35.6626 15.1183C36.9479 17.0685 43.0157 22.4122 46.0428 24.9901C49.0599 22.4181 55.1057 17.086 56.3993 15.1192C57.3522 13.6692 57.7252 12.4227 57.6466 10.9516C57.4894 8.01804 55.0563 5.63143 52.2226 5.63143C49.4138 5.63143 47.0126 8.97006 46.9887 9.00381C46.7688 9.31388 46.4117 9.49857 46.0323 9.49857C46.0263 9.49857 46.0202 9.49845 46.0142 9.49845C45.628 9.49236 45.269 9.29748 45.0553 8.97568C45.0342 8.9444 42.7789 5.63132 39.8391 5.63132V5.63132Z" fill="#223645"/>
</svg>
