<svg width="76" height="60" viewBox="0 0 76 60" fill="none" xmlns="http://www.w3.org/2000/svg">
<circle cx="53" cy="37" r="23" fill="#DFEFDD"/>
<path d="M56.5694 56.9277L53.9151 41.3883C53.6291 39.714 52.4414 38.3691 50.8152 37.8785L43.656 35.7184C43.5077 33.9683 42.7902 32.3173 41.596 31.0104C40.6409 29.9651 39.4394 29.2039 38.1151 28.7839C38.3418 28.5325 38.5519 28.2818 38.7446 28.0366C40.4471 25.8714 41.3586 23.4859 41.5907 21.858H42.143C43.5794 21.858 44.7482 20.6895 44.7482 19.2529V17.9174C44.7482 16.9587 44.2089 16.09 43.3978 15.6391V12.4277C43.3978 11.9425 43.0044 11.5491 42.5191 11.5491C42.0339 11.5491 41.6406 11.9423 41.6406 12.4277V16.0329C41.2984 16.0923 40.8901 16.195 40.4725 16.3709C40.4297 16.3864 40.3881 16.4045 40.3487 16.4262C40.2544 16.4692 40.1599 16.5145 40.0658 16.5656V9.48492C40.0658 7.52871 38.4744 5.9373 36.5182 5.9373H34.093C33.2565 5.9373 32.4394 6.22875 31.7918 6.7582L31.5538 6.95273C31.1167 7.31016 30.565 7.50703 30.0002 7.50703C29.4355 7.50703 28.8837 7.31016 28.4466 6.95273L28.2087 6.7582C27.5611 6.22887 26.7439 5.9373 25.9075 5.9373H23.482C21.5258 5.9373 19.9344 7.52871 19.9344 9.48492V16.5656C19.8403 16.5145 19.7459 16.4692 19.6515 16.4262C19.6121 16.4045 19.5707 16.3864 19.5279 16.3709C19.1102 16.195 18.7018 16.0923 18.3598 16.0329V6.91699C18.3598 4.07191 20.6745 1.75723 23.5195 1.75723H36.4806C39.3258 1.75723 41.6403 4.07191 41.6403 6.91699V8.29816C41.6403 8.78344 42.0337 9.17684 42.5189 9.17684C43.0041 9.17684 43.3976 8.78355 43.3976 8.29816V6.91699C43.3976 3.10301 40.2946 0 36.4806 0H23.5195C19.7054 0 16.6025 3.10301 16.6025 6.91699V15.6393C15.7915 16.0901 15.2522 16.9587 15.2522 17.9175V19.253C15.2522 20.6896 16.4209 21.8582 17.8574 21.8582H18.4097C18.6416 23.486 19.5532 25.8715 21.2557 28.0368C21.4482 28.2817 21.6582 28.5321 21.8846 28.7834C18.8401 29.7504 16.6199 32.4877 16.3444 35.7184L9.18493 37.8785C7.55871 38.3691 6.3709 39.714 6.08497 41.3883L5.00707 47.6987C4.9254 48.1771 5.24696 48.6309 5.7252 48.7126C6.20332 48.7945 6.65743 48.4729 6.73922 47.9945L7.81711 41.6841C7.99008 40.6711 8.70868 39.8576 9.69246 39.5609L16.3141 37.5629V39.3009C14.7963 39.5803 13.5048 40.6229 12.9729 42.0675C12.8317 42.4509 12.7439 42.8524 12.712 43.2607L12.0721 51.475C12.0238 52.0937 12.2379 52.7099 12.6592 53.1652C13.0805 53.6205 13.678 53.8819 14.2985 53.8819H15.394C15.8793 53.8819 16.2727 53.4886 16.2727 53.0032C16.2727 52.5178 15.8793 52.1246 15.394 52.1246H14.2985C14.1662 52.1246 14.0389 52.0691 13.9491 51.9718C13.8593 51.8748 13.8137 51.7436 13.824 51.6117L14.464 43.3973C14.4833 43.15 14.5364 42.9068 14.622 42.6746C14.992 41.6698 15.9914 40.9893 17.109 40.9814L17.2538 40.9804C17.2605 40.9802 17.2672 40.9802 17.2739 40.9802C18.3601 40.9802 19.3216 41.5962 19.7272 42.5537C19.841 42.8222 19.9102 43.106 19.9329 43.3973L20.5731 51.6118C20.5833 51.7436 20.5377 51.8748 20.4479 51.972C20.3582 52.069 20.2308 52.1246 20.0985 52.1246H19.003C18.5177 52.1246 18.1243 52.5179 18.1243 53.0032C18.1243 53.4885 18.5177 53.8819 19.003 53.8819H20.0985C20.719 53.8819 21.3166 53.6207 21.7378 53.1652C22.1592 52.7096 22.3733 52.0936 22.325 51.4751L21.6848 43.2607C21.6473 42.78 21.5331 42.3114 21.3452 41.868C20.7664 40.502 19.5288 39.5522 18.0713 39.2952V37.0328L21.0916 36.1214C21.3664 36.7002 21.911 37.9509 22.9897 40.6471C24.0769 43.3675 25.4282 46.8544 26.7241 50.2441C26.7334 50.2726 26.7441 50.3004 26.756 50.3276C27.6209 52.5906 28.4598 54.8071 29.1773 56.7191C29.306 57.062 29.6338 57.2891 30 57.2891C30.3662 57.2891 30.694 57.062 30.8227 56.7191C31.5401 54.8071 32.379 52.5906 33.244 50.3276C33.2561 50.3004 33.2666 50.2725 33.2759 50.2441C34.5709 46.8564 35.9215 43.3717 37.0082 40.6521C38.0883 37.9525 38.6333 36.7007 38.9082 36.1214L41.9286 37.0328V42.2224C39.8359 42.6289 38.2507 44.4746 38.2507 46.6846C38.2507 49.1913 40.2901 51.2309 42.797 51.2309C45.3039 51.2309 47.3433 49.1914 47.3433 46.6846C47.3433 44.4819 45.7685 42.6407 43.6859 42.2262V37.563L50.3076 39.561C51.2914 39.8577 52.0099 40.6712 52.183 41.6842L54.8373 57.2236C54.8814 57.4813 54.8128 57.7332 54.6442 57.933C54.4757 58.1327 54.2388 58.2429 53.9774 58.2429H6.02262C5.76118 58.2429 5.52446 58.1329 5.35582 57.933C5.18731 57.7332 5.11864 57.4814 5.1627 57.2236L6.03868 52.0952C6.12036 51.6169 5.79879 51.163 5.32055 51.0813C4.84243 50.9993 4.38833 51.3212 4.30653 51.7995L3.43055 56.9278C3.29989 57.6933 3.51211 58.4727 4.01274 59.0663C4.5136 59.6597 5.24614 60 6.02262 60H53.9774C54.7539 60 55.4865 59.6597 55.9873 59.0661C56.4879 58.4726 56.7001 57.6932 56.5694 56.9277ZM41.6509 17.8229C42.1191 17.7062 42.4949 17.7083 42.4991 17.7084C42.6505 17.7104 42.7977 17.675 42.9285 17.6065C42.9676 17.7039 42.9907 17.8085 42.9907 17.9175V19.253C42.9907 19.7205 42.6103 20.1009 42.1427 20.1009H41.6509V17.8229ZM18.3491 20.1009H17.8573C17.3897 20.1009 17.0093 19.7205 17.0093 19.253V17.9175C17.0093 17.8085 17.0325 17.7039 17.0715 17.6066C17.2022 17.6752 17.3494 17.7105 17.5009 17.7084C17.5076 17.7096 17.8823 17.7075 18.3491 17.8234V20.1009ZM20.1063 21.0861V18.7778C20.3726 18.8576 20.6638 18.8467 20.9326 18.7345C21.3938 18.5421 21.6916 18.0953 21.6916 17.5959V9.48492C21.6916 8.49773 22.4948 7.69453 23.482 7.69453H25.9072C26.3394 7.69453 26.7616 7.84512 27.0962 8.11863L27.3341 8.31316C28.0842 8.92652 29.031 9.26414 30 9.26414C30.969 9.26414 31.9158 8.92641 32.6659 8.31316L32.9038 8.11863C33.2382 7.84512 33.6606 7.69453 34.0928 7.69453H36.518C37.5052 7.69453 38.3084 8.49773 38.3084 9.48492V17.5961C38.3084 18.0953 38.6062 18.5422 39.0674 18.7346C39.2214 18.7989 39.3826 18.83 39.5425 18.83C39.6616 18.83 39.7799 18.8126 39.8937 18.7786V21.0861C39.8937 22.369 39.0068 24.8602 37.3631 26.9505C36.8187 27.643 36.1188 28.3869 35.2571 29.0371C35.2298 29.0554 35.2037 29.0752 35.1787 29.0962C33.8439 30.0832 32.1274 30.8393 30 30.8393C27.8726 30.8393 26.1561 30.0832 24.8211 29.0961C24.7962 29.0752 24.7702 29.0554 24.743 29.0372C23.8813 28.3869 23.1814 27.643 22.6369 26.9505C20.9933 24.8603 20.1063 22.369 20.1063 21.0861ZM35.7562 35.2816L30 39.5841L24.2438 35.2816C24.8146 34.5561 25.1344 33.6248 25.1344 32.7937V31.3774C26.488 32.1054 28.1032 32.5966 30 32.5966C31.8968 32.5966 33.5121 32.1054 34.8656 31.3774V32.7937C34.8656 33.6248 35.1854 34.5561 35.7562 35.2816ZM22.7774 34.3009C22.3082 34.1222 21.788 34.0929 21.2959 34.2264C21.2743 34.2314 21.2532 34.2372 21.2327 34.2432L18.1972 35.1592C18.7106 32.6347 20.7605 30.6254 23.3771 30.2362V32.7937C23.3771 33.345 23.1311 33.9149 22.7774 34.3009ZM25.162 41.3542C25.1604 41.3501 25.1587 41.346 25.1572 41.342C25.1127 41.2294 25.0687 41.1183 25.0252 41.0085C25.0173 40.9886 25.0095 40.9688 25.0016 40.9491C24.9589 40.8416 24.9166 40.735 24.8749 40.6301C24.872 40.6227 24.8691 40.6154 24.8661 40.6079C24.7359 40.2806 24.6104 39.9667 24.4897 39.6659C24.4809 39.6441 24.4721 39.6219 24.4634 39.6002C24.4287 39.514 24.3946 39.429 24.3607 39.3451C24.3483 39.3143 24.336 39.2838 24.3237 39.2534C24.2909 39.172 24.2583 39.0912 24.2262 39.0121C24.2166 38.9884 24.2072 38.9654 24.1977 38.9419C24.1395 38.7982 24.0825 38.6582 24.027 38.5216C24.012 38.4847 23.9966 38.4471 23.9817 38.4107C23.9599 38.3575 23.9387 38.3057 23.9174 38.2535C23.8944 38.1973 23.8714 38.1415 23.8489 38.0866C23.8405 38.0661 23.8317 38.0445 23.8233 38.0241C23.8165 38.0077 23.8103 37.9925 23.8036 37.9762C23.7021 37.7297 23.6057 37.4973 23.5141 37.2787C23.5134 37.277 23.5126 37.2752 23.5119 37.2735C23.4632 37.1571 23.4155 37.0434 23.3696 36.9352C23.3459 36.879 23.3224 36.8238 23.2995 36.7697L28.25 40.4698L26.1814 41.3486C26.1778 41.3501 26.1741 41.3516 26.1704 41.3532L25.3068 41.7202C25.2578 41.5963 25.2098 41.4749 25.162 41.3542ZM27.2585 46.734C27.085 46.2837 26.9101 45.8307 26.7349 45.3783C26.4609 44.6706 26.1993 43.9977 25.9488 43.3567L26.2767 43.2173L27.6164 44.7746L27.2585 46.734ZM30.017 53.8752C29.9918 53.8229 29.9618 53.7736 29.9271 53.7277C29.5301 52.6782 29.0262 51.3504 28.4685 49.8894L29.2888 45.3982H30.7112L31.5315 49.8894C30.9471 51.42 30.4222 52.804 30.017 53.8752ZM31.0407 43.6411H28.9593L27.9743 42.4962L30 41.6357L32.0257 42.4962L31.0407 43.6411ZM33.2651 45.3783C33.0899 45.8307 32.915 46.2837 32.7415 46.734L32.3836 44.7745L33.7233 43.2172L34.0512 43.3566C33.8007 43.9976 33.5391 44.6706 33.2651 45.3783ZM36.6305 36.9352C36.587 37.0378 36.5418 37.1455 36.4957 37.2554C36.4897 37.2697 36.4836 37.2841 36.4777 37.2986C36.4321 37.4075 36.3857 37.5189 36.3376 37.6348C36.3344 37.6424 36.3312 37.6505 36.328 37.6582C36.2865 37.7582 36.244 37.8613 36.2007 37.9664C36.1927 37.9861 36.185 38.0043 36.1769 38.0241C36.1673 38.0476 36.157 38.0726 36.1473 38.0964C36.1281 38.1432 36.1085 38.1911 36.0888 38.2389C36.0647 38.2978 36.0407 38.3565 36.0159 38.4169C36.0081 38.4361 36 38.4561 35.992 38.4755C35.9309 38.6254 35.868 38.7798 35.8038 38.9385C35.7937 38.9633 35.7838 38.9877 35.7737 39.0129C35.7419 39.0913 35.7096 39.1713 35.6771 39.2518C35.6645 39.2834 35.6517 39.3148 35.6389 39.3466C35.6054 39.4297 35.5716 39.5139 35.5373 39.5992C35.5277 39.623 35.518 39.6473 35.5084 39.6713C35.3892 39.968 35.2656 40.2775 35.1373 40.6C35.133 40.6106 35.1288 40.6211 35.1246 40.6318C35.0831 40.736 35.0412 40.842 34.9987 40.9487C34.9909 40.9686 34.9829 40.9886 34.975 41.0086C34.9311 41.119 34.8869 41.2305 34.8422 41.3439C34.8414 41.346 34.8405 41.3481 34.8397 41.3501C34.7914 41.4722 34.7429 41.595 34.6935 41.7204L33.829 41.3531C33.8259 41.3518 33.8229 41.3505 33.82 41.3493L31.7502 40.47L36.7008 36.7699C36.6776 36.8238 36.6541 36.8789 36.6305 36.9352ZM38.7673 34.2434C38.7671 34.2434 38.7669 34.2432 38.7668 34.2432C38.7661 34.243 38.7653 34.2429 38.7646 34.2425C38.2548 34.0896 37.711 34.1149 37.2227 34.3009C36.8689 33.9149 36.623 33.345 36.623 32.7937V30.235C39.256 30.6231 41.2997 32.6135 41.8064 35.1602L38.7673 34.2434ZM45.586 46.6846C45.586 48.2225 44.3348 49.4736 42.797 49.4736C41.2591 49.4736 40.0079 48.2225 40.0079 46.6846C40.0079 45.1466 41.2591 43.8955 42.797 43.8955C44.3348 43.8955 45.586 45.1466 45.586 46.6846Z" fill="#223645"/>
</svg>
