<svg width="71" height="60" viewBox="0 0 71 60" fill="none" xmlns="http://www.w3.org/2000/svg">
<circle cx="23" cy="31" r="23" fill="#DFEFDD"/>
<g clip-path="url(#clip0)">
<path d="M23.7434 21.3812H21.92C21.4346 21.3812 21.0411 21.7747 21.0411 22.2601C21.0411 22.7455 21.4346 23.139 21.92 23.139H22.8425C22.7399 23.6463 22.2904 24.0294 21.7533 24.0294C21.1405 24.0294 20.642 23.5309 20.642 22.9181V21.0157C20.642 20.4029 21.1405 19.9044 21.7533 19.9044C22.1667 19.9044 22.5437 20.1319 22.737 20.498C22.9637 20.9272 23.4954 21.0913 23.9246 20.8648C24.3539 20.6381 24.5181 20.1063 24.2914 19.6772C23.7929 18.733 22.8202 18.1465 21.7531 18.1465C20.1711 18.1465 18.884 19.4336 18.884 21.0156V22.918C18.884 24.5 20.1711 25.7871 21.7531 25.7871C23.3352 25.7871 24.6222 24.5 24.6222 22.918V22.2601C24.6224 21.7747 24.2288 21.3812 23.7434 21.3812V21.3812Z" fill="#223645"/>
<path d="M28.1383 18.1465C26.5563 18.1465 25.2692 19.4336 25.2692 21.0156V22.918C25.2692 24.5 26.5563 25.7871 28.1383 25.7871C29.7204 25.7871 31.0074 24.5 31.0074 22.918V21.0156C31.0074 19.4336 29.7204 18.1465 28.1383 18.1465ZM29.2496 22.9181C29.2496 23.5309 28.7511 24.0294 28.1383 24.0294C27.5256 24.0294 27.027 23.5309 27.027 22.9181V21.0157C27.027 20.4029 27.5256 19.9044 28.1383 19.9044C28.7511 19.9044 29.2496 20.4029 29.2496 21.0157V22.9181Z" fill="#223645"/>
<path d="M69.9446 58.9179L67.1454 47.1173C66.7336 45.3812 65.9128 43.7369 64.772 42.3617C64.462 41.9881 63.9078 41.9365 63.5343 42.2465C63.1608 42.5564 63.1092 43.1105 63.4192 43.4841C64.3883 44.6521 65.0853 46.0487 65.435 47.5228L68.2344 59.3236C68.3302 59.7278 68.6908 59.9999 69.0888 59.9999C69.1559 59.9999 69.2243 59.9922 69.2924 59.976C69.7646 59.8639 70.0566 59.3902 69.9446 58.9179V58.9179Z" fill="#223645"/>
<path d="M60.1153 48.9272C59.6299 48.9272 59.2364 49.3208 59.2364 49.8062V59.1208C59.2364 59.6062 59.6299 59.9997 60.1153 59.9997C60.6007 59.9997 60.9942 59.6062 60.9942 59.1208V49.8062C60.9942 49.3208 60.6007 48.9272 60.1153 48.9272Z" fill="#223645"/>
<path d="M55.6354 2.86828C55.4524 2.57167 55.2314 2.2855 54.9625 2.01621C53.6073 0.65953 51.3423 0 48.038 0C38.9276 0 34.9914 5.35768 33.4559 8.55127C33.1095 9.27174 33.1311 10.1211 33.5133 10.8232C33.5566 10.9026 33.604 10.9785 33.6545 11.0516C33.6472 11.206 33.631 11.4763 33.6297 11.6489L31.3652 12.2891L30.6613 9.51397C30.5089 8.91279 30.0421 8.43971 29.4432 8.27951C28.8452 8.11944 28.2049 8.29592 27.7733 8.73971L25.777 10.7912L23.7809 8.73994C23.3491 8.2958 22.7093 8.11955 22.1108 8.27951C21.5119 8.43971 21.0452 8.91279 20.8926 9.51397L20.1889 12.289L17.4342 11.5103C16.8375 11.3419 16.1945 11.51 15.7563 11.949C15.3187 12.3875 15.152 13.0298 15.3207 13.6237L16.0985 16.3794L13.3227 17.0825C12.7222 17.2351 12.2498 17.7018 12.0897 18.3004C11.9298 18.8988 12.1063 19.5389 12.5501 19.9705L14.6018 21.9669L12.5503 23.964C12.1063 24.3958 11.9298 25.0355 12.0897 25.6335C12.2497 26.2319 12.7222 26.6984 13.3231 26.8511L16.0985 27.5549L15.3211 30.3086C15.1518 30.9053 15.3191 31.5483 15.7577 31.9867C16.1963 32.4252 16.8393 32.5921 17.4344 32.4231L20.189 31.6454L20.893 34.4212C21.0457 35.0216 21.5123 35.4941 22.111 35.6541C22.257 35.6931 22.4053 35.7121 22.5526 35.7121C23.0091 35.7121 23.4547 35.5293 23.7809 35.1938L25.7772 33.1423L27.7733 35.1936C28.205 35.6377 28.8451 35.8142 29.4434 35.6541C30.042 35.4941 30.5088 35.0216 30.6616 34.4207L31.3654 31.6454L34.1191 32.4228C34.7163 32.5924 35.3589 32.4249 35.7971 31.9866C36.2354 31.5483 36.4026 30.9053 36.2336 30.3095L35.4558 27.5549L37.229 27.1052C37.3552 27.4905 37.4991 27.8821 37.6633 28.2745C38.9083 31.249 40.889 33.2532 43.485 34.2068C43.4615 34.4542 43.4091 34.6984 43.3292 34.9331L42.4136 34.8375C41.4825 34.7397 40.5644 35.0581 39.8935 35.7111C39.3036 36.2852 38.5041 37.231 37.8111 38.6236C37.454 38.4093 37.0454 38.2743 36.6072 38.2456C36.2673 38.222 35.933 38.2612 35.6156 38.3591C35.1049 37.922 34.4508 37.6742 33.7632 37.6742C33.3829 37.6742 33.0066 37.7518 32.6583 37.8986C32.1629 37.5309 31.5605 37.3288 30.9264 37.3288C30.366 37.3288 29.8224 37.491 29.3578 37.7876C28.9069 37.5477 28.3993 37.4277 27.8749 37.4433C26.2838 37.4913 24.9895 38.8495 24.9895 40.4709V40.6997L23.0543 42.635C22.1649 43.5257 21.6644 44.6821 21.6448 45.8908C21.6236 47.159 22.1062 48.3525 23.0042 49.2518L26.6457 52.8933V59.121C26.6457 59.6064 27.0392 59.9999 27.5246 59.9999C28.01 59.9999 28.4035 59.6064 28.4035 59.121V52.5293C28.4035 52.2962 28.3109 52.0726 28.146 51.9079L24.2476 48.0094C23.6894 47.4503 23.3892 46.7084 23.4024 45.9197C23.4146 45.1688 23.7326 44.4434 24.2977 43.8775L24.9894 43.1859V45.67C24.9894 46.1554 25.3829 46.5489 25.8683 46.5489C26.3537 46.5489 26.7472 46.1554 26.7472 45.67V41.0662C26.7472 41.0653 26.7473 40.471 26.7473 40.471C26.7473 39.79 27.2769 39.22 27.9272 39.2004C28.2521 39.1919 28.5623 39.3086 28.7989 39.5323C28.9716 39.6955 29.2024 39.7813 29.4406 39.7715C29.678 39.7612 29.9012 39.6551 30.0591 39.4776C30.28 39.2291 30.5962 39.0868 30.9263 39.0868C31.2833 39.0868 31.6152 39.2489 31.8373 39.5318C31.9823 39.7165 32.1952 39.8355 32.4284 39.8623C32.6617 39.8891 32.8959 39.8214 33.079 39.6743C33.2166 39.5638 33.4469 39.4321 33.7629 39.4321C34.1259 39.4321 34.4652 39.6134 34.6707 39.9173C34.9403 40.3163 35.481 40.4237 35.8829 40.1586C36.0084 40.0757 36.215 39.9815 36.4898 39.9996C37.0036 40.0333 37.4062 40.4842 37.4062 41.0263V47.0722C37.4062 47.4945 37.2508 47.8991 36.9677 48.2127L35.4804 49.8656C35.3352 50.027 35.255 50.2364 35.255 50.4535V52.5356C35.255 53.021 35.6485 53.4145 36.1339 53.4145C36.6193 53.4145 37.0128 53.021 37.0128 52.5356V50.7907L38.2735 49.3894C38.8477 48.7532 39.164 47.9302 39.164 47.0721V43.9467C40.7436 43.2278 42.1048 42.9822 43.0133 43.2416V59.121C43.0133 59.6064 43.4069 59.9999 43.8923 59.9999C44.3776 59.9999 44.7712 59.6064 44.7712 59.121V43.0805C45.5517 43.4496 46.4047 43.6417 47.289 43.6417C48.1917 43.6417 49.0597 43.4426 49.8513 43.0602V59.121C49.8513 59.6064 50.2449 59.9999 50.7302 59.9999C51.2156 59.9999 51.6092 59.6064 51.6092 59.121V43.2394C52.6199 42.9464 54.1715 43.2787 55.9757 44.1924C56.186 44.2989 56.4127 44.3514 56.638 44.3514C56.9428 44.3514 57.2453 44.2553 57.5021 44.0667C57.9505 43.7376 58.1723 43.1918 58.0811 42.6425C57.9195 41.6698 57.6886 40.8041 57.4147 40.0343C58.449 40.2061 59.4453 40.5379 60.3769 41.0244C60.5068 41.0923 60.6459 41.1245 60.783 41.1245C61.0999 41.1245 61.406 40.9526 61.5628 40.6524C61.7875 40.2221 61.6209 39.6911 61.1906 39.4664C60.052 38.8718 58.8318 38.4714 57.5639 38.2765L56.554 38.1222C55.9602 37.0571 55.3042 36.2708 54.7298 35.7115C54.0595 35.0588 53.1409 34.7404 52.2102 34.8374L51.2971 34.9327C51.2183 34.698 51.1668 34.4542 51.1436 34.2074C53.7399 33.2539 55.7207 31.2496 56.9657 28.2747C57.5602 26.854 57.8886 25.4436 58.0707 24.3109C58.191 24.3227 58.3113 24.3307 58.4316 24.3307C60.204 24.3305 61.9331 23.0628 62.6338 21.1106C63.0453 19.9625 63.0485 18.7388 62.6425 17.665C62.2645 16.6658 61.5763 15.9016 60.6844 15.478C61.112 11.2626 60.9104 8.17686 60.084 6.30409C59.4171 4.79284 57.8268 3.61417 55.6354 2.86828V2.86828ZM56.4953 7.15463C56.496 6.52464 56.4964 5.79807 56.3876 5.05382C57.4315 5.57823 58.1319 6.23448 58.4755 7.01342C59.1577 8.55924 59.3211 11.3578 58.9527 15.1245C58.7317 15.1333 58.5101 15.1609 58.29 15.2083C58.2074 13.4597 57.2367 11.9041 55.7275 11.059C56.233 10.0046 56.4953 8.59264 56.4953 7.15463V7.15463ZM34.8776 16.9898C35.333 16.8268 35.8437 16.8464 36.332 17.0395V21.9C36.332 21.9342 36.3333 22.175 36.3588 22.566C35.2607 22.6631 34.1197 21.8264 33.6497 20.5169C33.3789 19.7618 33.3721 18.9697 33.6305 18.2865C33.87 17.6527 34.3131 17.1923 34.8776 16.9898V16.9898ZM36.3386 15.2084C36.1043 15.1578 35.8686 15.1298 35.6334 15.123C35.489 13.9227 35.4074 12.9081 35.39 12.0926C36.0654 12.1788 36.7025 12.3048 37.32 12.4574C36.7315 13.2518 36.3866 14.2064 36.3386 15.2084V15.2084ZM34.1484 26.073C33.9184 26.1314 33.7218 26.2801 33.6033 26.4855C33.4847 26.6909 33.4543 26.9355 33.5186 27.1638L34.5196 30.7095L30.974 29.7085C30.7457 29.644 30.5011 29.6745 30.2957 29.7932C30.0903 29.9118 29.9416 30.1083 29.8832 30.3383L28.9772 33.9106L26.4069 31.2691C26.2414 31.099 26.0142 31.0031 25.777 31.0031C25.5398 31.0031 25.3126 31.0989 25.1471 31.2691L22.5767 33.9105L21.6707 30.3381C21.6124 30.1082 21.4637 29.9117 21.2582 29.7931C21.0529 29.6744 20.8082 29.644 20.58 29.7084L17.0343 30.7094L18.0354 27.1637C18.0998 26.9354 18.0693 26.6908 17.9506 26.4854C17.832 26.2799 17.6355 26.1312 17.4056 26.0729L13.8342 25.1671L16.4749 22.5964C16.6449 22.4309 16.7408 22.2037 16.7408 21.9665C16.7408 21.7293 16.6448 21.5022 16.4748 21.3368L13.8333 18.7664L17.4054 17.8616C17.6353 17.8033 17.8319 17.6546 17.9505 17.4492C18.0692 17.2438 18.0998 16.9992 18.0354 16.7708L17.0343 13.2238L20.5797 14.2259C20.8079 14.2904 21.0527 14.26 21.2581 14.1413C21.4636 14.0227 21.6124 13.8262 21.6707 13.5962L22.5769 10.0229L25.1471 12.6642C25.3126 12.8342 25.5398 12.9302 25.777 12.9302C26.0142 12.9302 26.2414 12.8343 26.4069 12.6642L28.977 10.0229L29.8832 13.5962C29.9416 13.8261 30.0904 14.0227 30.2958 14.1413C30.5014 14.2599 30.7461 14.2903 30.9744 14.2259L33.7007 13.4552C33.7472 14.0713 33.8163 14.7519 33.9077 15.4941C33.0336 15.9211 32.3592 16.6788 31.9863 17.6645C31.5802 18.7382 31.5834 19.9618 31.9951 21.1102C32.6956 23.0623 34.4246 24.3301 36.197 24.3301C36.3173 24.3301 36.4376 24.3221 36.5579 24.3103C36.6131 24.6535 36.6814 25.0216 36.7668 25.4085L34.1484 26.073ZM39.0316 40.1778C39.678 38.6124 40.5405 37.534 41.1193 36.9708C41.4149 36.6831 41.8198 36.5429 42.2304 36.5859L43.0129 36.6674V41.4391C41.7536 41.2349 40.3652 41.571 39.1639 42.0384V41.0262C39.1639 40.7308 39.1163 40.4461 39.0316 40.1778ZM51.6093 36.6672L52.3923 36.5855C52.8034 36.5425 53.2079 36.6831 53.5034 36.9708C54.2813 37.7282 55.6286 39.4081 56.2421 42.3688C55.0799 41.8322 53.7062 41.3737 52.4067 41.3737C52.1368 41.3737 51.8701 41.3934 51.6093 41.4364V36.6672ZM44.7707 36.4031C44.9963 35.9513 45.119 35.1671 45.1971 34.6667C45.8707 34.7872 46.5767 34.8492 47.3148 34.8492C48.0523 34.8492 48.7576 34.7873 49.4306 34.667C49.508 35.1665 49.6285 35.9514 49.8515 36.4033V41.0093C49.1182 41.5816 48.2236 41.8839 47.2889 41.8839C46.3721 41.8839 45.4978 41.591 44.7706 41.0371C44.7689 41.0358 44.7707 36.4031 44.7707 36.4031V36.4031ZM49.8053 14.8316C51.8974 14.5651 53.637 13.7729 54.7502 12.5302C55.8451 13.0881 56.5385 14.2045 56.5385 15.4511V21.8989C56.5385 21.9278 56.5185 24.8179 55.3254 27.6394C53.7957 31.257 51.1006 33.0912 47.3147 33.0912C43.5283 33.0912 40.8327 31.257 39.303 27.6394C38.1098 24.8179 38.0897 21.9278 38.0897 21.8998V15.451C38.0897 14.5111 38.4917 13.6223 39.1936 13.0003C39.5699 13.1217 39.9463 13.2479 40.3278 13.376C41.8934 13.9018 43.5124 14.4454 45.4247 14.7292C45.9044 14.7999 46.3518 14.4689 46.4231 13.9888C46.4943 13.5086 46.1629 13.0616 45.6828 12.9903C43.9246 12.7295 42.4493 12.2341 40.8875 11.7097C39.2556 11.1617 37.5682 10.595 35.5852 10.3451C35.2764 10.3062 35.1217 10.1011 35.057 9.98236C34.9427 9.77236 34.9366 9.52826 35.04 9.31287C36.3967 6.49135 39.8894 1.75781 48.038 1.75781C50.8129 1.75781 52.7242 2.26277 53.7188 3.25851C54.7407 4.28167 54.7391 5.74124 54.7375 7.15264C54.7375 10.5539 53.0409 12.6545 49.6954 13.0807C49.2138 13.142 48.8732 13.5821 48.9346 14.0636C48.9911 14.5074 49.3694 14.8316 49.8053 14.8316V14.8316ZM60.979 20.5168C60.5089 21.8265 59.3678 22.6628 58.2697 22.566C58.2952 22.175 58.2964 21.9343 58.2964 21.9V17.0395C58.7846 16.8464 59.2953 16.8268 59.7506 16.9898C60.3153 17.1923 60.7583 17.6527 60.9981 18.2865C61.2564 18.9697 61.2496 19.7619 60.979 20.5168Z" fill="#223645"/>
<path d="M50.1807 24.3843H44.448C43.9626 24.3843 43.5691 24.7778 43.5691 25.2632V26.1939C43.5691 28.2591 45.2492 29.9391 47.3143 29.9391C49.3794 29.9391 51.0596 28.259 51.0596 26.1939V25.2632C51.0596 24.7778 50.6661 24.3843 50.1807 24.3843ZM49.3018 26.1939C49.3018 27.2898 48.4103 28.1813 47.3143 28.1813C46.2184 28.1813 45.3269 27.2897 45.3269 26.1939V26.1421H49.3018V26.1939Z" fill="#223645"/>
<path d="M54.2683 18.6693C53.7214 18.272 53.0216 18.0532 52.2976 18.0532C51.5736 18.0532 50.8737 18.272 50.3269 18.6693C49.9342 18.9546 49.8471 19.5042 50.1323 19.8969C50.4178 20.2897 50.9674 20.3767 51.36 20.0915C51.6089 19.9106 51.9418 19.811 52.2976 19.811C52.6534 19.811 52.9863 19.9106 53.2352 20.0915C53.3912 20.2048 53.572 20.2594 53.7511 20.2594C54.0228 20.2594 54.2908 20.1338 54.4629 19.8971C54.7481 19.5042 54.661 18.9546 54.2683 18.6693V18.6693Z" fill="#223645"/>
<path d="M44.4961 19.8969C44.7814 19.5042 44.6942 18.9546 44.3015 18.6693C43.7546 18.272 43.0548 18.0532 42.3308 18.0532C41.6068 18.0532 40.9069 18.272 40.3601 18.6693C39.9674 18.9546 39.8803 19.5042 40.1655 19.8969C40.451 20.2897 41.0005 20.3767 41.3932 20.0915C41.6421 19.9106 41.975 19.811 42.3308 19.811C42.6866 19.811 43.0195 19.9106 43.2684 20.0915C43.4244 20.2048 43.6052 20.2594 43.7843 20.2594C44.056 20.2593 44.324 20.1337 44.4961 19.8969V19.8969Z" fill="#223645"/>
<path d="M46.9712 23.2153H47.6573C48.1427 23.2153 48.5362 22.8218 48.5362 22.3364C48.5362 21.851 48.1427 21.4575 47.6573 21.4575H46.9712C46.4858 21.4575 46.0923 21.851 46.0923 22.3364C46.0923 22.8218 46.4858 23.2153 46.9712 23.2153Z" fill="#223645"/>
<path d="M36.1338 55.9097C35.6484 55.9097 35.2549 56.3032 35.2549 56.7886V59.1213C35.2549 59.6067 35.6484 60.0002 36.1338 60.0002C36.6192 60.0002 37.0127 59.6067 37.0127 59.1213V56.7886C37.0127 56.3032 36.6192 55.9097 36.1338 55.9097Z" fill="#223645"/>
</g>
<defs>
<clipPath id="clip0">
<rect width="60" height="60" fill="white" transform="translate(11)"/>
</clipPath>
</defs>
</svg>
