<svg width="69" height="61" viewBox="0 0 69 61" fill="none" xmlns="http://www.w3.org/2000/svg">
<circle cx="46" cy="23" r="23" fill="#DFEFDD"/>
<path d="M57.1875 16.9375H42.1875C41.9389 16.9375 41.7004 17.0363 41.5246 17.2121C41.3488 17.3879 41.25 17.6264 41.25 17.875V31C41.25 31.2486 41.3488 31.4871 41.5246 31.6629C41.7004 31.8387 41.9389 31.9375 42.1875 31.9375H48.75V35.1719L42.1106 39.3748C40.6448 37.9348 38.755 37.0039 36.72 36.7195C37.514 36.0477 38.1596 35.2181 38.6156 34.2834C39.0716 33.3487 39.3281 32.3293 39.3689 31.29C39.4096 30.2508 39.2336 29.2144 38.8521 28.2469C38.4706 27.2793 37.8919 26.4018 37.1528 25.67C36.4138 24.9382 35.5306 24.3683 34.5593 23.9963C33.588 23.6244 32.55 23.4586 31.5112 23.5096C30.4724 23.5606 29.4556 23.8271 28.5254 24.2924C27.5952 24.7576 26.7721 25.4113 26.1082 26.212L15 21.0279V19.75H21.5625C21.8111 19.75 22.0496 19.6512 22.2254 19.4754C22.4012 19.2996 22.5 19.0611 22.5 18.8125V5.6875C22.5 5.43886 22.4012 5.2004 22.2254 5.02459C22.0496 4.84877 21.8111 4.75 21.5625 4.75H6.5625C6.31386 4.75 6.0754 4.84877 5.89959 5.02459C5.72377 5.2004 5.625 5.43886 5.625 5.6875V18.8125C5.625 19.0611 5.72377 19.2996 5.89959 19.4754C6.0754 19.6512 6.31386 19.75 6.5625 19.75H13.125V21.625C13.125 21.8034 13.1759 21.9781 13.2718 22.1286C13.3676 22.279 13.5044 22.399 13.6661 22.4745L25.0909 27.8065C24.3871 29.2982 24.1957 30.9806 24.5465 32.5922C24.8972 34.2039 25.7705 35.6545 27.0306 36.7187C24.7359 37.0419 22.6349 38.1823 21.1136 39.9305C19.5924 41.6786 18.7531 43.917 18.75 46.2344V49.8348L11.25 47.2098V44.125H17.8125C18.0611 44.125 18.2996 44.0262 18.4754 43.8504C18.6512 43.6746 18.75 43.4361 18.75 43.1875V29.125C18.75 28.8764 18.6512 28.6379 18.4754 28.4621C18.2996 28.2863 18.0611 28.1875 17.8125 28.1875H2.8125C2.56386 28.1875 2.3254 28.2863 2.14959 28.4621C1.97377 28.6379 1.875 28.8764 1.875 29.125V43.1875C1.875 43.4361 1.97377 43.6746 2.14959 43.8504C2.3254 44.0262 2.56386 44.125 2.8125 44.125H9.375V47.875C9.375 48.0694 9.43541 48.2589 9.54788 48.4175C9.66035 48.576 9.81931 48.6957 10.0028 48.7599L18.75 51.8214V58.1875C18.75 58.4361 18.8488 58.6746 19.0246 58.8504C19.2004 59.0262 19.4389 59.125 19.6875 59.125H44.0625C44.3111 59.125 44.5496 59.0262 44.7254 58.8504C44.9012 58.6746 45 58.4361 45 58.1875V46.2344C45.002 44.3031 44.4187 42.4166 43.3269 40.8236L50.1889 36.4797C50.3225 36.3951 50.4326 36.2781 50.5088 36.1396C50.585 36.0011 50.625 35.8456 50.625 35.6875V31.9375H57.1875C57.4361 31.9375 57.6746 31.8387 57.8504 31.6629C58.0262 31.4871 58.125 31.2486 58.125 31V17.875C58.125 17.6264 58.0262 17.3879 57.8504 17.2121C57.6746 17.0363 57.4361 16.9375 57.1875 16.9375ZM7.5 6.625H20.625V17.875H7.5V6.625ZM10.5976 30.0625V31.9375C10.5976 32.1116 10.6461 32.2822 10.7376 32.4303C10.8292 32.5784 10.9601 32.6981 11.1158 32.776L11.6883 33.0625C11.9918 33.2132 12.2624 33.4227 12.4844 33.6787C12.7063 33.9348 12.8753 34.2324 12.9814 34.5542L12.9977 34.6026C13.1058 34.9237 13.149 35.263 13.125 35.601C13.101 35.9389 13.0102 36.2687 12.8578 36.5713L12.6057 37.0752C12.3929 37.5044 12.064 37.8654 11.6565 38.1172C11.2489 38.3691 10.7789 38.5017 10.2998 38.5H3.75V37.5625H5.58902C6.42478 37.5635 7.23962 37.3012 7.91789 36.8129C8.59615 36.3245 9.10339 35.635 9.36762 34.8421L9.37148 34.8304C9.56279 34.2569 9.66025 33.6562 9.66012 33.0516V30.0625H10.5976ZM7.78512 30.0625V33.0518C7.78529 33.4535 7.72079 33.8525 7.5941 34.2337C7.5941 34.235 7.59059 34.2439 7.59023 34.2454C7.45053 34.6656 7.18199 35.0311 6.82275 35.2899C6.4635 35.5488 6.03182 35.6879 5.58902 35.6875H3.75V30.0625H7.78512ZM3.75 40.375H10.2998C11.1274 40.3778 11.9393 40.1487 12.6433 39.7136C13.3472 39.2785 13.9152 38.6548 14.2828 37.9134L14.5349 37.4095C14.798 36.8867 14.9548 36.317 14.9962 35.7333C15.0376 35.1496 14.9628 34.5634 14.7762 34.0088L14.76 33.9604C14.5766 33.4048 14.2849 32.8912 13.9016 32.4492C13.5184 32.0071 13.0513 31.6455 12.5273 31.3852L12.4731 31.3581V30.0625H16.875V42.25H3.75V40.375ZM26.25 31C26.2491 30.1695 26.4332 29.3492 26.7891 28.5988L27.7281 29.037C27.8397 29.0891 27.9604 29.1186 28.0834 29.124C28.2064 29.1294 28.3293 29.1106 28.445 29.0685C28.5607 29.0264 28.667 28.9619 28.7578 28.8788C28.8486 28.7956 28.9221 28.6954 28.9741 28.5838C29.0262 28.4723 29.0558 28.3515 29.0612 28.2285C29.0666 28.1055 29.0477 27.9827 29.0056 27.8669C28.9635 27.7512 28.8991 27.645 28.8159 27.5542C28.7328 27.4634 28.6325 27.3898 28.521 27.3378L27.8835 27.0402C28.8008 26.1168 30.01 25.5403 31.305 25.4091C32.5999 25.2778 33.9003 25.5999 34.9842 26.3205C36.0681 27.041 36.8685 28.1153 37.2487 29.3601C37.6289 30.6049 37.5654 31.9431 37.0691 33.1463C36.5727 34.3495 35.6743 35.3432 34.527 35.9579C33.3797 36.5726 32.0547 36.7701 30.778 36.5168C29.5013 36.2636 28.352 35.5752 27.5263 34.5691C26.7005 33.563 26.2495 32.3016 26.25 31ZM20.625 52.4777L24.375 53.7902V57.25H20.625V52.4777ZM28.125 55.375V57.25H26.25V54.4464L28.1357 55.1064C28.1293 55.1952 28.125 55.2846 28.125 55.375ZM30 57.25V55.375C30 54.8777 30.1975 54.4008 30.5492 54.0492C30.9008 53.6975 31.3777 53.5 31.875 53.5C32.3723 53.5 32.8492 53.6975 33.2008 54.0492C33.5525 54.4008 33.75 54.8777 33.75 55.375V57.25H30ZM43.125 46.2344V57.25H39.375V46.9375C39.375 46.6889 39.2762 46.4504 39.1004 46.2746C38.9246 46.0988 38.6861 46 38.4375 46C38.1889 46 37.9504 46.0988 37.7746 46.2746C37.5988 46.4504 37.5 46.6889 37.5 46.9375V57.25H35.625V55.375C35.6253 54.5667 35.3644 53.78 34.8812 53.1321C34.3979 52.4843 33.7182 52.0099 32.9433 51.7799C32.1685 51.5499 31.34 51.5765 30.5815 51.8557C29.823 52.1349 29.1751 52.6519 28.7344 53.3294L26.25 52.4598V46.9375C26.25 46.6889 26.1512 46.4504 25.9754 46.2746C25.7996 46.0988 25.5611 46 25.3125 46C25.0639 46 24.8254 46.0988 24.6496 46.2746C24.4738 46.4504 24.375 46.6889 24.375 46.9375V51.8036L20.625 50.4911V46.2344C20.6273 44.1838 21.4429 42.2179 22.8929 40.7679C24.3429 39.3179 26.3088 38.5023 28.3594 38.5H35.3906C37.2605 38.4989 39.0669 39.1783 40.4726 40.4113L35.5256 43.5429C35.0164 43.1431 34.3881 42.9251 33.7407 42.9236C33.0933 42.9221 32.4639 43.1371 31.9528 43.5345C31.6324 43.2853 31.2633 43.1062 30.8693 43.0086C30.4753 42.9111 30.0652 42.8973 29.6656 42.9682C29.2659 43.0391 28.8856 43.1931 28.5492 43.4202C28.2128 43.6473 27.9279 43.9425 27.7127 44.2867C27.3864 44.8024 27.2673 45.4224 27.3791 46.0223C27.491 46.6222 27.8256 47.1576 28.3158 47.5211L31.3903 49.8269C31.5526 49.9486 31.75 50.0144 31.9528 50.0144C32.1557 50.0144 32.353 49.9486 32.5153 49.8269L35.5898 47.5206C35.9545 47.2502 36.2355 46.8825 36.4008 46.4597C36.5661 46.0369 36.6088 45.576 36.5242 45.13L41.7414 41.8273C42.6433 43.1198 43.1264 44.6583 43.125 46.2344V46.2344ZM34.4648 46.0205L31.9528 47.9045L29.4408 46.0205C29.3286 45.9373 29.2521 45.8148 29.2265 45.6776C29.2009 45.5403 29.2281 45.3985 29.3027 45.2805C29.3814 45.1545 29.4866 45.0472 29.6108 44.9659C29.7351 44.8846 29.8755 44.8313 30.0224 44.8096C30.1693 44.7879 30.3192 44.7983 30.4616 44.8403C30.6041 44.8822 30.7357 44.9545 30.8475 45.0523L31.3355 45.4793C31.5064 45.6289 31.7257 45.7113 31.9528 45.7113C32.1799 45.7113 32.3993 45.6289 32.5702 45.4793L33.0582 45.0523C33.17 44.9545 33.3016 44.8822 33.444 44.8403C33.5865 44.7984 33.7363 44.7879 33.8832 44.8096C34.0301 44.8313 34.1705 44.8846 34.2948 44.9659C34.419 45.0472 34.5241 45.1546 34.6028 45.2805C34.6775 45.3984 34.7047 45.5403 34.6792 45.6776C34.6536 45.8148 34.577 45.9374 34.4648 46.0205V46.0205ZM43.125 18.8125H56.25V24.4375H52.5C52.3769 24.4375 52.255 24.4617 52.1412 24.5089C52.0275 24.556 51.9241 24.625 51.8371 24.7121L50.8818 25.6674L48.651 21.2057C48.5731 21.05 48.4534 20.9191 48.3053 20.8276C48.1572 20.736 47.9866 20.6876 47.8125 20.6876C47.6384 20.6876 47.4678 20.736 47.3197 20.8276C47.1716 20.9191 47.0519 21.05 46.974 21.2057L45.3581 24.4375H43.125V18.8125ZM43.125 30.0625V26.3125H45.9375C46.1116 26.3125 46.2822 26.264 46.4303 26.1725C46.5784 26.081 46.6981 25.95 46.776 25.7943L47.8125 23.7214L49.7865 27.6693C49.853 27.8021 49.95 27.9173 50.0697 28.0053C50.1894 28.0932 50.3283 28.1515 50.4749 28.1753C50.5245 28.1834 50.5747 28.1875 50.625 28.1875C50.7481 28.1875 50.87 28.1633 50.9838 28.1161C51.0975 28.069 51.2009 28 51.2879 27.9129L52.8882 26.3125H56.25V30.0625H43.125Z" fill="#223645"/>
<path d="M15 16C15.9946 16 16.9484 15.6049 17.6516 14.9017C18.3549 14.1984 18.75 13.2446 18.75 12.25C18.75 11.2554 18.3549 10.3016 17.6516 9.59835C16.9484 8.89509 15.9946 8.5 15 8.5H13.125C12.1304 8.5 11.1766 8.89509 10.4733 9.59835C9.77009 10.3016 9.375 11.2554 9.375 12.25C9.375 13.2446 9.77009 14.1984 10.4733 14.9017C11.1766 15.6049 12.1304 16 13.125 16H15ZM16.875 12.25C16.8744 12.7471 16.6767 13.2237 16.3252 13.5752C15.9737 13.9267 15.4971 14.1244 15 14.125V10.375C15.4971 10.3756 15.9737 10.5733 16.3252 10.9248C16.6767 11.2763 16.8744 11.7529 16.875 12.25ZM11.25 12.25C11.2506 11.7529 11.4483 11.2763 11.7998 10.9248C12.1513 10.5733 12.6279 10.3756 13.125 10.375V14.125C12.6279 14.1244 12.1513 13.9267 11.7998 13.5752C11.4483 13.2237 11.2506 12.7471 11.25 12.25V12.25Z" fill="#223645"/>
<path d="M53.4375 42.25H49.6875C49.4389 42.25 49.2004 42.3488 49.0246 42.5246C48.8488 42.7004 48.75 42.9389 48.75 43.1875V44.125H47.8125C47.5639 44.125 47.3254 44.2238 47.1496 44.3996C46.9738 44.5754 46.875 44.8139 46.875 45.0625V48.8125C46.875 49.0611 46.9738 49.2996 47.1496 49.4754C47.3254 49.6512 47.5639 49.75 47.8125 49.75H48.75V50.6875C48.75 50.9361 48.8488 51.1746 49.0246 51.3504C49.2004 51.5262 49.4389 51.625 49.6875 51.625H53.4375C53.6861 51.625 53.9246 51.5262 54.1004 51.3504C54.2762 51.1746 54.375 50.9361 54.375 50.6875V49.75H55.3125C55.5611 49.75 55.7996 49.6512 55.9754 49.4754C56.1512 49.2996 56.25 49.0611 56.25 48.8125V45.0625C56.25 44.8139 56.1512 44.5754 55.9754 44.3996C55.7996 44.2238 55.5611 44.125 55.3125 44.125H54.375V43.1875C54.375 42.9389 54.2762 42.7004 54.1004 42.5246C53.9246 42.3488 53.6861 42.25 53.4375 42.25ZM54.375 47.875H53.4375C53.1889 47.875 52.9504 47.9738 52.7746 48.1496C52.5988 48.3254 52.5 48.5639 52.5 48.8125V49.75H50.625V48.8125C50.625 48.5639 50.5262 48.3254 50.3504 48.1496C50.1746 47.9738 49.9361 47.875 49.6875 47.875H48.75V46H49.6875C49.9361 46 50.1746 45.9012 50.3504 45.7254C50.5262 45.5496 50.625 45.3111 50.625 45.0625V44.125H52.5V45.0625C52.5 45.3111 52.5988 45.5496 52.7746 45.7254C52.9504 45.9012 53.1889 46 53.4375 46H54.375V47.875Z" fill="#223645"/>
<path d="M50.625 53.5H48.75C48.5014 53.5 48.2629 53.5988 48.0871 53.7746C47.9113 53.9504 47.8125 54.1889 47.8125 54.4375C47.8125 54.6861 47.9113 54.9246 48.0871 55.1004C48.2629 55.2762 48.5014 55.375 48.75 55.375H50.625C50.8736 55.375 51.1121 55.2762 51.2879 55.1004C51.4637 54.9246 51.5625 54.6861 51.5625 54.4375C51.5625 54.1889 51.4637 53.9504 51.2879 53.7746C51.1121 53.5988 50.8736 53.5 50.625 53.5Z" fill="#223645"/>
<path d="M57.1875 53.5H54.375C54.1264 53.5 53.8879 53.5988 53.7121 53.7746C53.5363 53.9504 53.4375 54.1889 53.4375 54.4375C53.4375 54.6861 53.5363 54.9246 53.7121 55.1004C53.8879 55.2762 54.1264 55.375 54.375 55.375H57.1875C57.4361 55.375 57.6746 55.2762 57.8504 55.1004C58.0262 54.9246 58.125 54.6861 58.125 54.4375C58.125 54.1889 58.0262 53.9504 57.8504 53.7746C57.6746 53.5988 57.4361 53.5 57.1875 53.5Z" fill="#223645"/>
<path d="M47.8125 58.1875C47.8125 58.4361 47.9113 58.6746 48.0871 58.8504C48.2629 59.0262 48.5014 59.125 48.75 59.125H54.375C54.6236 59.125 54.8621 59.0262 55.0379 58.8504C55.2137 58.6746 55.3125 58.4361 55.3125 58.1875C55.3125 57.9389 55.2137 57.7004 55.0379 57.5246C54.8621 57.3488 54.6236 57.25 54.375 57.25H48.75C48.5014 57.25 48.2629 57.3488 48.0871 57.5246C47.9113 57.7004 47.8125 57.9389 47.8125 58.1875Z" fill="#223645"/>
</svg>
