<svg width="76" height="65" viewBox="0 0 76 65" fill="none" xmlns="http://www.w3.org/2000/svg">
<circle cx="23" cy="23" r="23" fill="#DFEFDD"/>
<path d="M47.8326 45.3606L47.8274 45.2903C47.8144 45.1111 47.7502 44.9394 47.6424 44.7957C47.5346 44.652 47.3878 44.5423 47.2195 44.4796C47.0512 44.4169 46.8683 44.4039 46.6928 44.4422C46.5173 44.4804 46.3565 44.5683 46.2295 44.6953L45.5139 45.4108C44.8964 46.0267 44.0599 46.3726 43.1877 46.3726C42.3156 46.3726 41.4791 46.0267 40.8616 45.4108L40.2777 44.8268C39.3083 43.8596 37.9949 43.3164 36.6255 43.3164C35.2561 43.3164 33.9426 43.8596 32.9732 44.8268L32.3894 45.4106C31.7719 46.0265 30.9353 46.3724 30.0632 46.3724C29.1911 46.3724 28.3545 46.0265 27.737 45.4106C27.0371 44.7157 26.1532 44.2352 25.1895 44.0255C24.2257 43.8158 23.2221 43.8857 22.2967 44.227C22.1307 44.2882 21.9853 44.3951 21.8775 44.5354C21.7697 44.6757 21.7038 44.8436 21.6873 45.0198C21.6452 45.4667 21.625 45.8692 21.625 46.2504C21.625 49.7313 23.0078 53.0697 25.4692 55.5311C27.9306 57.9926 31.269 59.3754 34.75 59.3754C38.231 59.3754 41.5694 57.9926 44.0308 55.5311C46.4922 53.0697 47.875 49.7313 47.875 46.2504C47.875 45.939 47.8534 45.645 47.8326 45.3606V45.3606ZM34.75 57.5004C31.7673 57.497 28.9078 56.3107 26.7987 54.2016C24.6897 52.0926 23.5033 49.233 23.5 46.2504C23.5 46.116 23.503 45.9774 23.5093 45.8335C24.0298 45.7399 24.5652 45.7731 25.0701 45.9303C25.5751 46.0875 26.0348 46.364 26.4102 46.7365C27.3796 47.7037 28.6931 48.2469 30.0625 48.2469C31.4319 48.2469 32.7454 47.7037 33.7148 46.7365L34.2986 46.1526C34.9161 45.5367 35.7526 45.1909 36.6248 45.1909C37.4969 45.1909 38.3334 45.5367 38.9509 46.1526L39.5348 46.7367C40.363 47.5627 41.4466 48.0838 42.609 48.2149C43.7714 48.346 44.9438 48.0793 45.9352 47.4585C45.6337 50.2155 44.3258 52.7645 42.262 54.6174C40.1982 56.4702 37.5235 57.4967 34.75 57.5004V57.5004Z" fill="#223645"/>
<path d="M51.6251 46.25C51.6397 42.4275 50.3419 38.7158 47.9488 35.7351C45.7661 33.0046 42.7937 31.0144 39.4376 30.0364V27.3387C40.0628 27.1174 40.5897 26.6822 40.9251 26.11C41.2606 25.5379 41.3831 24.8656 41.2709 24.2119C41.1588 23.5582 40.8192 22.9651 40.3122 22.5375C39.8051 22.1099 39.1633 21.8753 38.5001 21.875H31.0001C30.3368 21.8753 29.695 22.1099 29.188 22.5375C28.681 22.9651 28.3414 23.5582 28.2292 24.2119C28.117 24.8656 28.2395 25.5379 28.575 26.11C28.9104 26.6822 29.4373 27.1174 30.0626 27.3387V30.0364C26.7064 31.0144 23.734 33.0046 21.5513 35.7351C19.1582 38.7158 17.8605 42.4275 17.8751 46.25C17.8751 55.5547 25.4454 63.125 34.7501 63.125C44.0547 63.125 51.6251 55.5547 51.6251 46.25ZM31.0001 23.75H38.5001C38.7487 23.75 38.9872 23.8488 39.163 24.0246C39.3388 24.2004 39.4376 24.4389 39.4376 24.6875C39.4376 24.9361 39.3388 25.1746 39.163 25.3504C38.9872 25.5262 38.7487 25.625 38.5001 25.625H31.0001C30.7514 25.625 30.513 25.5262 30.3371 25.3504C30.1613 25.1746 30.0626 24.9361 30.0626 24.6875C30.0626 24.4389 30.1613 24.2004 30.3371 24.0246C30.513 23.8488 30.7514 23.75 31.0001 23.75V23.75ZM34.7501 61.25C30.7732 61.2455 26.9605 59.6637 24.1484 56.8516C21.3364 54.0396 19.7546 50.2269 19.7501 46.25C19.7369 42.8527 20.8901 39.5537 23.017 36.9045C25.0973 34.3003 27.9821 32.459 31.2201 31.6688C31.4246 31.6195 31.6065 31.5028 31.7366 31.3375C31.8667 31.1723 31.9375 30.9681 31.9376 30.7578V27.5H37.5626V30.7578C37.5626 30.9682 37.6333 31.1725 37.7635 31.3378C37.8937 31.5031 38.0757 31.6198 38.2802 31.6692C41.5183 32.4594 44.4031 34.3006 46.4833 36.9049C48.6101 39.554 49.7632 42.8528 49.7501 46.25C49.7456 50.2269 48.1638 54.0396 45.3517 56.8516C42.5396 59.6637 38.7269 61.2455 34.7501 61.25Z" fill="#223645"/>
<path d="M27.25 50H29.125V51.875H27.25V50Z" fill="#223645"/>
<path d="M32.875 53.75H34.75V55.625H32.875V53.75Z" fill="#223645"/>
<path d="M35.6875 48.125H37.5625V50H35.6875V48.125Z" fill="#223645"/>
<path d="M39.4375 50.9375H41.3125V52.8125H39.4375V50.9375Z" fill="#223645"/>
<path d="M66.625 6.875H25.375C24.1322 6.8764 22.9408 7.3707 22.062 8.24948C21.1832 9.12825 20.6889 10.3197 20.6875 11.5625V31.25H22.5625V11.5625C22.5634 10.8168 22.86 10.102 23.3872 9.57472C23.9145 9.04746 24.6293 8.75087 25.375 8.75H66.625C67.3707 8.75087 68.0855 9.04746 68.6128 9.57472C69.14 10.102 69.4366 10.8168 69.4375 11.5625V58.4375C69.4366 59.1832 69.14 59.898 68.6128 60.4253C68.0855 60.9525 67.3707 61.2491 66.625 61.25H46V63.125H66.625C67.8678 63.1236 69.0592 62.6293 69.938 61.7505C70.8168 60.8717 71.3111 59.6803 71.3125 58.4375V11.5625C71.3111 10.3197 70.8168 9.12825 69.938 8.24948C69.0592 7.3707 67.8678 6.8764 66.625 6.875V6.875Z" fill="#223645"/>
<path d="M54.4375 36.875H66.625V38.75H54.4375V36.875Z" fill="#223645"/>
<path d="M54.4375 40.625H66.625V42.5H54.4375V40.625Z" fill="#223645"/>
<path d="M54.4375 44.375H64.75V46.25H54.4375V44.375Z" fill="#223645"/>
<path d="M61 33.125H66.625V35H61V33.125Z" fill="#223645"/>
<path d="M57.25 33.125H59.125V35H57.25V33.125Z" fill="#223645"/>
<path d="M47.875 18.125V20.3581L44.6432 21.974C44.4875 22.0519 44.3565 22.1716 44.265 22.3197C44.1735 22.4678 44.125 22.6384 44.125 22.8125V27.5C44.125 27.6741 44.1735 27.8447 44.265 27.9928C44.3565 28.1409 44.4875 28.2606 44.6432 28.3385L47.875 29.9544V32.1875H49.75V29.9544L52.5625 28.5481L55.8932 30.2135C56.0234 30.2786 56.1669 30.3125 56.3125 30.3125C56.4581 30.3125 56.6016 30.2786 56.7318 30.2135L60.2838 28.4375H62.875V26.5625H61V23.3919L64.0338 21.875H66.625V20H64.75V16.25C64.75 16.0759 64.7015 15.9053 64.61 15.7572C64.5185 15.6091 64.3875 15.4894 64.2318 15.4115L61 13.7956V11.5625H59.125V13.7956L56.0912 15.3125H53.5V17.1875H55.375V20.3581L52.5625 21.7644L49.75 20.3581V18.125H47.875ZM59.125 26.9206L56.3125 28.3269L53.5 26.9206V23.3919L56.3125 21.9856L59.125 23.3919V26.9206ZM57.25 16.8294L60.0625 15.4231L62.875 16.8294V20.3581L60.0625 21.7644L57.25 20.3581V16.8294ZM51.625 26.9206L48.8125 28.3269L46 26.9206V23.3919L48.8125 21.9856L51.625 23.3919V26.9206Z" fill="#223645"/>
<path d="M53.5 58.4375H66.625V56.5625H64.75V51.875H62.875V56.5625H61V50H59.125V56.5625H57.25V53.75H55.375V56.5625H53.5V58.4375Z" fill="#223645"/>
<path d="M25.375 11.5625V20.9375H27.25V19.0625H37.5625V17.1875H27.25V15.3125H41.3125V13.4375H27.25V11.5625H25.375Z" fill="#223645"/>
<path d="M39.4375 17.1875H41.3125V19.0625H39.4375V17.1875Z" fill="#223645"/>
<path d="M43.1875 13.4375H45.0625V15.3125H43.1875V13.4375Z" fill="#223645"/>
<path d="M31.2881 35.5423L30.7118 33.7578C28.2142 34.5636 26.0166 36.1017 24.4042 38.1723L25.8813 39.327C27.2634 37.552 29.1472 36.2334 31.2881 35.5423V35.5423Z" fill="#223645"/>
<path d="M24.7668 41.0586L23.104 40.1914C22.766 40.8401 22.4829 41.5159 22.2578 42.2118L24.0421 42.7882C24.2348 42.1924 24.4773 41.6138 24.7668 41.0586V41.0586Z" fill="#223645"/>
</svg>
