<svg width="64" height="64" viewBox="0 0 64 64" fill="none" xmlns="http://www.w3.org/2000/svg">
<circle cx="32" cy="32" r="32" fill="#6BBD5F"/>
<g clip-path="url(#clip0)">
<path d="M26.3373 32.356C26.7559 32.2693 27.1933 32.0794 27.6059 31.7815C28.7923 30.9233 29.3188 29.5142 28.7808 28.6326C28.1957 27.6736 26.5954 27.738 25.3657 28.8295C24.1897 29.8448 23.9388 30.9057 23.9388 32.0207C23.9388 32.8086 24.1908 34.2153 25.7302 35.437C26.457 34.8755 27.3234 34.4135 28.307 34.0794L28.32 34.0747C27.5643 33.7597 26.5792 33.1382 26.3373 32.356ZM26.1475 29.6443C26.1475 29.3148 26.41 29.0499 26.7337 29.0499C27.0571 29.0499 27.3199 29.3161 27.3199 29.6455C27.3199 29.9749 27.0571 30.2398 26.7337 30.2398C26.4101 30.2398 26.1475 29.9737 26.1475 29.6443Z" fill="white"/>
<path d="M40.0823 32.0215C40.0788 30.9054 39.8291 29.8444 38.6521 28.8291C37.4233 27.7388 35.8219 27.6719 35.2368 28.6322C34.6999 29.5138 35.2251 30.923 36.4115 31.7811C36.8242 32.079 37.2616 32.2688 37.6801 32.3556C37.5347 32.8257 37.0927 33.304 36.4187 33.7073C35.4918 34.2605 34.9911 34.329 29.0607 36.2983C26.8661 37.0439 25.5601 38.5257 25.5601 40.2621C25.5601 41.4989 26.192 42.4533 27.07 43.1521C27.6223 42.5834 28.3117 42.0899 29.1171 41.6947C28.1898 41.2259 27.9036 40.8705 27.9036 40.2621C27.9036 39.2578 29.911 38.6836 30.8371 38.3781V40.9199L33.1818 39.874V38.3793C34.1093 38.6864 36.1116 39.2599 36.1116 40.2621C36.1116 41.9294 31.3372 42.9127 29.3059 44.3138C28.32 44.9973 27.7898 45.8661 27.7898 46.8872C27.7898 47.4734 27.858 48.2002 28.8872 48.9224C29.1791 49.1556 29.5846 48.815 29.395 48.4874C28.7149 47.1263 29.4371 46.4464 30.8393 45.8578V47.825C30.8393 48.4722 31.3646 48.9974 32.0117 48.9974C32.6589 48.9974 33.1841 48.4722 33.1841 47.825V45.8589C34.5311 46.424 35.3788 47.2224 34.6249 48.4874C34.4381 48.8087 34.836 49.1584 35.1314 48.9224C36.1279 48.1673 36.2065 47.5202 36.2065 46.9024C36.2065 45.9517 35.686 45.029 34.6988 44.322C36.6942 43.601 38.4598 42.3876 38.4598 40.2644C38.4598 38.7978 37.5279 37.5129 35.917 36.6992C36.6695 36.4284 37.0482 36.2467 37.5511 35.9466C39.7541 34.63 40.0823 32.9219 40.0823 32.0215ZM37.2851 30.2394C36.9614 30.2394 36.6989 29.9733 36.6989 29.6439C36.6989 29.3144 36.9614 29.0483 37.2851 29.0483C37.6086 29.0483 37.8713 29.3144 37.8713 29.6439C37.8713 29.9733 37.6086 30.2394 37.2851 30.2394Z" fill="white"/>
<path d="M48.4132 17.347H40.3842C38.8091 17.347 37.6271 18.0433 36.6103 19.0602C35.5057 20.1648 34.9313 22.6204 33.1723 22.6204V19.3643C33.8703 18.9582 34.3447 18.2106 34.3447 17.3448C34.3447 16.0498 33.295 15 32 15C30.7049 15 29.6552 16.0498 29.6552 17.3448C29.6552 18.2105 30.1296 18.9581 30.8276 19.3643V33.3365C31.5512 33.1057 32.3453 32.8513 33.1723 32.5857V26.7132C33.681 26.458 34.0914 26.0454 34.3431 25.5347C34.7509 26.2317 35.5261 26.726 36.3902 26.726C37.2666 26.726 38.0217 26.2394 38.424 25.5273C39.7974 26.9008 42.3503 26.9272 43.7237 25.5538L41.7314 23.5615L42.6454 23.9401C44.44 24.6835 46.4973 23.8312 47.2409 22.0366L44.4105 20.8642C47.1524 20.8642 48.4132 19.1436 48.4132 17.347Z" fill="white"/>
<path d="M27.3896 19.0603C26.3728 18.0434 25.1908 17.3472 23.6157 17.3472H15.5867C15.5867 19.1437 16.8475 20.8643 19.5894 20.8643L16.7591 22.0367C17.5025 23.8313 19.56 24.6835 21.3546 23.9402L22.2685 23.5616L20.2762 25.5539C21.6496 26.9274 24.2025 26.9009 25.5759 25.5273C25.9782 26.2396 26.7333 26.7262 27.6097 26.7262C27.6184 26.7262 27.627 26.7261 27.6356 26.726C28.7812 26.713 29.6568 25.6782 29.6568 24.5327V22.174C28.7328 21.4158 28.2035 19.8742 27.3896 19.0603Z" fill="white"/>
</g>
<defs>
<clipPath id="clip0">
<rect width="34" height="34" fill="white" transform="translate(15 15)"/>
</clipPath>
</defs>
</svg>
