<svg width="20" height="20" viewBox="0 0 20 20" fill="none" xmlns="http://www.w3.org/2000/svg">
<g clip-path="url(#clip0)">
<path d="M8.80758 0C3.95121 0 0 3.95121 0 8.80758C0 13.6642 3.95121 17.6152 8.80758 17.6152C13.6642 17.6152 17.6152 13.6642 17.6152 8.80758C17.6152 3.95121 13.6642 0 8.80758 0ZM8.80758 15.9892C4.8477 15.9892 1.62602 12.7675 1.62602 8.80762C1.62602 4.84773 4.8477 1.62602 8.80758 1.62602C12.7675 1.62602 15.9891 4.8477 15.9891 8.80758C15.9891 12.7675 12.7675 15.9892 8.80758 15.9892Z" fill="#223645"/>
<path d="M19.7618 18.6119L15.1006 13.9506C14.7829 13.633 14.2686 13.633 13.951 13.9506C13.6333 14.268 13.6333 14.7829 13.951 15.1002L18.6122 19.7615C18.771 19.9203 18.9789 19.9997 19.187 19.9997C19.3949 19.9997 19.603 19.9203 19.7618 19.7615C20.0795 19.4441 20.0795 18.9292 19.7618 18.6119Z" fill="#223645"/>
</g>
<defs>
<clipPath id="clip0">
<rect width="20" height="20" fill="white"/>
</clipPath>
</defs>
</svg>
