<svg width="76" height="60" viewBox="0 0 76 60" fill="none" xmlns="http://www.w3.org/2000/svg">
<circle cx="28.5" cy="28.5" r="28.5" fill="#FCEEE9"/>
<path d="M46.012 24.3431C46.012 22.8434 44.7921 21.624 43.2929 21.624C41.7936 21.624 40.5738 22.8434 40.5738 24.3431C40.5738 25.8421 41.7936 27.0623 43.2929 27.0623C44.7921 27.0623 46.012 25.8421 46.012 24.3431ZM42.0844 24.3431C42.0844 23.6767 42.6264 23.1346 43.2929 23.1346C43.9596 23.1346 44.5014 23.6767 44.5014 24.3431C44.5014 25.009 43.9596 25.5516 43.2929 25.5516C42.6264 25.5516 42.0844 25.009 42.0844 24.3431Z" fill="#223645"/>
<path d="M53.3065 30.8348C53.3065 32.3344 54.5263 33.554 56.0256 33.554C57.5244 33.554 58.7448 32.3344 58.7448 30.8348C58.7448 29.3355 57.5244 28.1157 56.0256 28.1157C54.5263 28.1157 53.3065 29.3355 53.3065 30.8348V30.8348ZM56.0256 29.6263C56.6917 29.6263 57.2341 30.1682 57.2341 30.8348C57.2341 31.5009 56.6917 32.0433 56.0256 32.0433C55.359 32.0433 54.8171 31.5009 54.8171 30.8348C54.8171 30.1682 55.359 29.6263 56.0256 29.6263Z" fill="#223645"/>
<path d="M39.4402 38.2986C39.4402 40.4233 41.1686 42.1517 43.2929 42.1517C45.4173 42.1517 47.1456 40.4233 47.1456 38.2986C47.1456 36.1742 45.4173 34.4463 43.2929 34.4463C41.1686 34.4463 39.4402 36.1742 39.4402 38.2986V38.2986ZM43.2929 35.9569C44.5844 35.9569 45.635 37.0075 45.635 38.2986C45.635 39.5903 44.5844 40.641 43.2929 40.641C42.0012 40.641 40.9509 39.5903 40.9509 38.2986C40.9509 37.0073 42.0012 35.9569 43.2929 35.9569Z" fill="#223645"/>
<path d="M71.4408 29.6598C70.2092 29.6598 69.2077 30.4983 68.8748 31.6236H65.5655C65.1387 30.2133 64.3121 29.5401 64.1397 28.7812C63.9129 27.784 64.6726 26.1662 64.0323 24.8395C63.3888 23.5047 61.6312 23.0721 61.0159 22.3015C60.8181 22.0537 60.6792 21.6807 60.5442 21.2815L66.3645 15.4614C66.8519 15.7544 67.3837 15.9617 67.967 15.9617C68.8143 15.9617 69.6103 15.6318 70.2096 15.0326C71.4458 13.7965 71.4458 11.7843 70.2096 10.5478C68.9704 9.30892 66.9643 9.30872 65.725 10.5478C64.6777 11.595 64.5725 13.1733 65.2988 14.3906L59.942 19.7475C59.4769 18.8528 58.8882 18.3599 57.5506 18.1666C57.1375 18.107 56.7548 18.3932 56.6947 18.8059C56.6351 19.2188 56.9213 19.6017 57.3348 19.6617C58.4068 19.8168 58.5665 20.1133 59.0054 21.4577C59.5575 23.1486 59.8715 23.5369 61.3871 24.4425C62.8486 25.3163 62.9129 25.4816 62.6933 27.1302C62.4546 28.922 62.5811 29.405 63.5322 30.8457C64.4738 32.2744 64.4738 32.484 63.5322 33.9119C62.5779 35.3589 62.4558 35.8427 62.6933 37.628C62.9133 39.2794 62.8456 39.4436 61.3863 40.3157C59.8717 41.2207 59.5575 41.609 59.0054 43.3007C58.4807 44.9076 58.3387 45.0139 56.6694 45.1688C54.8927 45.3332 54.4447 45.5551 53.234 46.821C52.0545 48.0541 51.8767 48.0803 50.3294 47.5026C49.7074 47.2708 49.0649 47.0313 48.3789 47.0313C47.0304 47.0313 45.667 48.0309 44.8483 47.845C44.4078 47.7451 43.9787 47.2962 43.5241 46.821C42.3167 45.5586 41.8715 45.334 40.0886 45.1684C38.4187 45.0139 38.2767 44.907 37.7524 43.3001C37.1997 41.6088 36.8861 41.2207 35.3708 40.3153C33.9096 39.4418 33.8449 39.277 34.0642 37.6278C34.3019 35.8445 34.1803 35.3593 33.2255 33.9119C32.2839 32.484 32.2839 32.2738 33.2255 30.8455C34.1801 29.399 34.3021 28.9146 34.0642 27.1296C33.8449 25.4806 33.9096 25.3154 35.3712 24.4421C35.9298 24.1084 36.5074 23.7633 36.9225 23.2433C37.3397 22.7206 37.5495 22.0785 37.7524 21.4571C37.9548 20.8378 38.1457 20.2527 38.4902 19.9777C38.8306 19.7054 39.4414 19.649 40.0886 19.589C41.8673 19.424 42.3142 19.2019 43.5241 17.9368C44.7012 16.7059 44.8775 16.6761 46.4286 17.255C48.1174 17.8852 48.6399 17.8852 50.3294 17.255C52.2334 16.5446 52.101 16.8588 53.6753 18.3861C53.9742 18.6762 54.4526 18.6695 54.7428 18.3698C55.0337 18.0705 55.0266 17.5922 54.7267 17.3015C54.5948 17.174 54.4647 17.037 54.3255 16.8922C52.6872 15.1802 51.8845 15.0628 49.8011 15.84C49.5707 15.9256 49.3491 16.0048 49.1342 16.0713V11.883C50.2591 11.5497 51.0978 10.5486 51.0978 9.31677C51.0978 7.81743 49.8778 6.59766 48.3787 6.59766C46.8793 6.59766 45.6596 7.81743 45.6596 9.31677C45.6596 10.5486 46.4981 11.5497 47.6234 11.883V16.0713C47.4089 16.0048 47.1873 15.9256 46.9563 15.84C44.8734 15.0628 44.0704 15.18 42.4321 16.8924C42.0617 17.2798 41.7118 17.6455 41.3644 17.8135C41.0042 17.9871 40.4916 18.0345 39.9488 18.0848C38.4293 18.2258 37.5036 18.423 36.8156 19.7475L32.5909 15.5228C33.3829 14.2337 33.2801 12.5471 32.1647 11.4312C30.8599 10.1261 28.7362 10.1261 27.431 11.4312C24.7284 14.1342 28.025 18.7394 31.5226 16.5911L36.2131 21.2815C35.8562 22.3367 35.7217 22.4729 34.5958 23.1454C32.5939 24.3418 32.2674 25.0812 32.5669 27.3294C32.6392 27.8724 32.7075 28.3858 32.6175 28.7812C32.4451 29.5401 31.6184 30.2131 31.1918 31.6236H27.8828C27.5494 30.4983 26.5484 29.6598 25.3165 29.6598C23.8172 29.6598 22.5974 30.8796 22.5974 32.3789C22.5974 33.878 23.8172 35.098 25.3165 35.098C26.5484 35.098 27.5494 34.2593 27.8828 33.1342H31.1918C31.6184 34.5447 32.4451 35.2173 32.6179 35.9764C32.8445 36.9734 32.0847 38.592 32.7248 39.9181C33.3688 41.2533 35.1261 41.6855 35.7418 42.4562C35.9394 42.7041 36.0782 43.0773 36.2131 43.4763L33.3516 46.3376C32.3208 45.7777 31.0192 45.8925 30.1487 46.7636C28.4347 48.4781 29.6653 51.4039 32.0714 51.4039C34.0892 51.4039 35.4377 49.2801 34.4199 47.406L36.8158 45.0101C37.9367 47.1675 40.1855 46.3757 41.3644 46.9445C42.2556 47.3745 43.0522 48.9863 44.5137 49.3182C45.6028 49.5659 46.6497 48.9889 47.6234 48.6868V52.875C46.4981 53.2079 45.6596 54.2094 45.6596 55.441C45.6596 56.9402 46.8793 58.1602 48.3787 58.1602C49.8778 58.1602 51.0978 56.9402 51.0978 55.441C51.0978 54.2094 50.2591 53.2079 49.134 52.875V48.6868C50.1219 48.9927 51.1564 49.5657 52.2441 49.3182C53.7017 48.9869 54.5088 47.3713 55.393 46.9445C56.5864 46.3685 58.8144 47.1794 59.942 45.0101L60.7349 45.8039C61.0302 46.0986 61.5084 46.0986 61.8037 45.8039C62.0985 45.5086 62.0985 45.0302 61.8037 44.7352L60.5442 43.4759C60.9013 42.4197 61.0367 42.2845 62.1616 41.6122C64.163 40.416 64.4901 39.6764 64.1904 37.4284C64.0025 36.0171 64.0412 35.8831 64.7927 34.7437C65.1083 34.2656 65.3883 33.7195 65.5651 33.1342H68.8742C69.2077 34.2593 70.2092 35.098 71.4408 35.098C72.9399 35.098 74.1599 33.878 74.1599 32.3789C74.1599 30.8796 72.9399 29.6598 71.4408 29.6598V29.6598ZM67.967 11.1297C69.443 11.1297 70.1803 12.9257 69.1416 13.9646C68.4923 14.6134 67.4421 14.6136 66.7927 13.9646C65.7534 12.9253 66.4916 11.1297 67.967 11.1297ZM47.1702 9.31677C47.1702 8.65029 47.7122 8.10828 48.3787 8.10828C49.0454 8.10828 49.5872 8.65029 49.5872 9.31677C49.5872 9.98346 49.0454 10.5253 48.3787 10.5253C47.7122 10.5253 47.1702 9.98346 47.1702 9.31677V9.31677ZM28.4995 15.0968C27.7833 14.3808 27.7833 13.2156 28.4995 12.4991C29.2154 11.7835 30.3805 11.7835 31.0966 12.4991C31.8128 13.2156 31.8128 14.3808 31.0966 15.0968C30.3805 15.813 29.2154 15.8126 28.4995 15.0968ZM25.3165 33.5874C24.6501 33.5874 24.108 33.0456 24.108 32.3789C24.108 31.7124 24.6501 31.1704 25.3165 31.1704C25.9832 31.1704 26.525 31.7124 26.525 32.3789C26.525 33.0456 25.9832 33.5874 25.3165 33.5874ZM32.926 49.5408C32.4543 50.0123 31.6877 50.0123 31.2166 49.5408C30.4547 48.7788 31.0017 47.4785 32.071 47.4785C33.1399 47.4785 33.6886 48.7782 32.926 49.5408ZM49.5872 55.441C49.5872 56.1077 49.0454 56.6495 48.3787 56.6495C47.7122 56.6495 47.1702 56.1077 47.1702 55.441C47.1702 54.7746 47.7122 54.2325 48.3787 54.2325C49.0454 54.2325 49.5872 54.7746 49.5872 55.441ZM71.4408 33.5874C70.7743 33.5874 70.2323 33.0456 70.2323 32.3789C70.2323 31.7124 70.7743 31.1704 71.4408 31.1704C72.1075 31.1704 72.6493 31.7124 72.6493 32.3789C72.6493 33.0456 72.1075 33.5874 71.4408 33.5874Z" fill="#223645"/>
<path d="M65.2708 48.2026L63.9816 46.9129C63.6859 46.6182 63.2079 46.6182 62.9129 46.9129C62.6178 47.208 62.6178 47.6863 62.9129 47.9816L64.2025 49.2709C63.4347 50.5337 63.5379 52.1803 64.6285 53.2707C65.9113 54.5536 67.9879 54.554 69.2708 53.2707C70.5536 51.9879 70.5536 49.9116 69.2708 48.6285C68.1803 47.5379 66.5339 47.4348 65.2708 48.2026V48.2026ZM68.2026 52.2026C67.5102 52.8951 66.3897 52.8951 65.6968 52.2026C65.0062 51.5118 65.0062 50.3877 65.6968 49.6968C66.3877 49.0062 67.5116 49.0062 68.2026 49.6968C68.8951 50.3893 68.8953 51.5102 68.2026 52.2026Z" fill="#223645"/>
</svg>
