<svg width="76" height="60" viewBox="0 0 76 60" fill="none" xmlns="http://www.w3.org/2000/svg">
<circle cx="28.5" cy="28.5" r="28.5" fill="#FCEEE9"/>
<g clip-path="url(#clip0)">
<path d="M66.375 16.176C66.2761 16.3247 66.1603 16.4947 66.0333 16.6811C64.7283 18.5967 63.4541 20.5895 63.4541 22.0544C63.4541 24.5365 65.3852 25.8352 67.2927 25.8352C69.2017 25.8352 71.1341 24.5365 71.1341 22.0544C71.1341 20.5894 69.8599 18.5966 68.5549 16.6811C68.4279 16.4947 68.3121 16.3248 68.2132 16.176C68.212 16.174 68.2107 16.1722 68.2094 16.1704C68.1133 16.0285 67.8214 15.5972 67.2932 15.5972C67.292 15.5972 67.2909 15.5972 67.2898 15.5972C66.7597 15.599 66.4707 16.0326 66.375 16.176ZM67.294 17.6923C68.0634 18.8226 69.5227 20.9971 69.5227 22.0544C69.5227 23.5531 68.4026 24.2238 67.2925 24.2238C66.1839 24.2238 65.0654 23.553 65.0654 22.0544C65.0655 20.997 66.5248 18.8225 67.294 17.6923Z" fill="#223645"/>
<path d="M75.1943 46.7455C75.6393 46.7455 76 46.3848 76 45.9398V39.3168C76 38.5636 75.3859 37.9508 74.631 37.9508H73.4118V35.5002H73.7693C74.5157 35.5002 75.123 34.8929 75.123 34.1465V30.6355C75.123 29.889 74.5157 29.2817 73.7693 29.2817H61.2362C60.4897 29.2817 59.8825 29.889 59.8825 30.6355V34.1465C59.8825 34.8929 60.4897 35.5002 61.2362 35.5002H61.5937V37.9509H60.3745C59.6196 37.9509 59.0055 38.5637 59.0055 39.3169V56.1287C59.0055 56.8836 59.6196 57.4977 60.3745 57.4977H74.631C75.3859 57.4977 76 56.8836 76 56.1287V49.6579C76 49.213 75.6393 48.8523 75.1943 48.8523C74.7494 48.8523 74.3887 49.213 74.3887 49.6579V55.8864H60.6168V52.6469H66.976C67.7106 52.6469 68.3084 52.0493 68.3084 51.3145V44.1342C68.3084 43.3995 67.7108 42.8017 66.976 42.8017H60.6168V39.5623H74.3887V45.9399C74.3887 46.3849 74.7494 46.7455 75.1943 46.7455ZM66.697 44.413V51.0355H60.6168V44.413H66.697ZM71.8004 37.9509H63.205V35.5002H71.8004V37.9509ZM62.3994 33.8889H61.4937V30.893H73.5117V33.8889H72.606H62.3994Z" fill="#223645"/>
<path d="M59.2326 17.0394L66.9974 9.2773C67.3121 8.96277 67.3121 8.45262 66.9976 8.13798C66.6831 7.82324 66.1729 7.82313 65.8583 8.13777L58.0566 15.9367C57.6002 15.6689 57.0781 15.5256 56.5331 15.5256C55.7269 15.5256 54.9704 15.8382 54.403 16.4056L53.2321 17.5765C53.083 17.5497 48.4151 17.6376 48.4151 17.6376C47.6327 17.654 47.3966 17.7125 46.8723 18.2516C46.8268 18.2984 43.0389 22.088 43.0389 22.088L43.0388 22.0881L43.0387 22.0882L37.4399 27.6871C37.4398 27.6872 37.4397 27.6873 37.4396 27.6874C37.4395 27.6876 37.4394 27.6877 37.4393 27.6878L32.4078 32.7193L31.6668 31.9781C31.6653 31.9766 31.6638 31.9751 31.6622 31.9736C31.1534 31.4727 30.3302 31.4748 29.827 31.9781L27.8295 33.9757C27.5846 34.2207 27.4496 34.5468 27.4496 34.8941C27.4496 35.2414 27.5846 35.5674 27.8295 35.8124L31.5139 39.4968L27.242 43.7712L25.6286 42.1578C24.5706 41.0998 22.8493 41.0998 21.7914 42.1578C20.7365 43.2128 20.736 44.9323 21.7903 45.9908C21.7907 45.9912 21.7912 45.9917 21.7916 45.9921L29.3142 53.5121C29.8243 54.0243 30.5056 54.3065 31.2324 54.3065C31.9593 54.3065 32.6405 54.0244 33.1484 53.5144C33.6599 53.0051 33.942 52.3252 33.9428 51.6001C33.9435 50.8735 33.6618 50.1912 33.1496 49.679L31.5359 48.0652L35.8078 43.7908L39.4874 47.4704C39.7327 47.7198 40.061 47.8571 40.4115 47.8571H40.4116C40.7623 47.8571 41.0904 47.7198 41.3315 47.475L43.3214 45.485C43.5708 45.2395 43.7081 44.9112 43.7081 44.5606C43.7081 44.21 43.5708 43.8816 43.326 43.6408L42.5848 42.8994L50.8136 34.6705C51.1282 34.3559 51.1282 33.8458 50.8136 33.5312C50.4989 33.2166 49.9888 33.2166 49.6742 33.5312L47.0468 36.1588L44.6945 33.8056C44.6878 33.7984 44.6819 33.7909 44.6749 33.7839C44.668 33.777 44.6605 33.771 44.6534 33.7644L39.1485 28.2574L40.8091 26.5968L42.5155 28.3033C42.6728 28.4607 42.879 28.5393 43.0852 28.5393C43.2913 28.5393 43.4976 28.4607 43.6548 28.3033C43.9695 27.9887 43.9695 27.4786 43.6548 27.164L41.9484 25.4575L43.6093 23.7965L45.3173 25.5023C45.4746 25.6593 45.6806 25.7378 45.8866 25.7378C46.093 25.7378 46.2993 25.6591 46.4567 25.5015C46.7711 25.1867 46.7708 24.6765 46.456 24.3622L44.7487 22.6572L46.4103 20.9955L48.1182 22.7035C48.2755 22.8609 48.4817 22.9395 48.6879 22.9395C48.894 22.9395 49.1003 22.8609 49.2575 22.7035C49.5722 22.3888 49.5722 21.8788 49.2575 21.5642L47.5495 19.8561C47.5495 19.8561 48.1095 19.2908 48.1417 19.2592C48.2217 19.2536 52.851 19.1582 52.8852 19.1579C52.9102 19.1797 56.1246 22.3942 56.146 22.4187C56.1457 22.4534 56.0534 27.081 56.0474 27.1626C56.0157 27.1949 52.3598 30.8456 52.3598 30.8456C52.0452 31.1602 52.0452 31.6703 52.3598 31.9849C52.6744 32.2996 53.1846 32.2995 53.4991 31.9849C53.4991 31.9849 57.0074 28.478 57.054 28.4326C57.5939 27.9077 57.6526 27.6714 57.6691 26.8878C57.6691 26.8878 57.754 22.2234 57.7275 22.0744L58.8979 20.9039C59.9481 19.8535 60.0591 18.2151 59.2326 17.0394ZM32.0101 50.8184C32.2176 51.0259 32.3318 51.3028 32.3314 51.5985C32.3311 51.8925 32.2175 52.1675 32.0091 52.375C31.8035 52.5814 31.5277 52.6951 31.2325 52.6951C30.9373 52.6951 30.6616 52.5814 30.4547 52.3737L22.9311 44.8531C22.5032 44.4227 22.5028 43.7248 22.9306 43.2971C23.1378 43.0899 23.4145 42.9758 23.7098 42.9758C24.0051 42.9758 24.2819 43.0899 24.4891 43.2971L32.0101 50.8184ZM30.3964 46.9258L28.3812 44.9105L32.6531 40.636L34.6683 42.6514L30.3964 46.9258ZM40.4115 46.1161L33.2225 38.9268C33.2225 38.9268 33.2225 38.9267 33.2224 38.9267C33.2224 38.9267 33.2223 38.9267 33.2223 38.9266L29.1898 34.894L30.7466 33.337L31.8113 34.402C31.8198 34.4112 31.8276 34.421 31.8365 34.4299C31.8455 34.4388 31.8551 34.4467 31.8644 34.455L37.9222 40.5146C37.9259 40.5184 37.9289 40.5224 37.9325 40.5261C37.9362 40.5298 37.9403 40.5329 37.9439 40.5364L41.9668 44.5605L40.4115 46.1161ZM45.9073 37.298L41.4455 41.7599L39.6421 39.9559L44.1039 35.494L45.9073 37.298ZM42.9647 34.3544L38.503 38.8164L36.4894 36.8023L40.9513 32.3403L42.9647 34.3544ZM39.8122 31.2007L35.3502 35.6628L33.5468 33.8589L38.0088 29.3967L39.8122 31.2007ZM57.7584 19.7644L56.7688 20.754L54.5501 18.5372L55.5423 17.5451C55.8055 17.2819 56.1574 17.137 56.5331 17.137C56.9089 17.137 57.2608 17.2819 57.524 17.5451L57.7585 17.7796C58.3057 18.3268 58.3056 19.2172 57.7584 19.7644Z" fill="#223645"/>
</g>
<defs>
<clipPath id="clip0">
<rect width="55" height="55" fill="white" transform="translate(21 5)"/>
</clipPath>
</defs>
</svg>
