<svg width="76" height="60" viewBox="0 0 76 60" fill="none" xmlns="http://www.w3.org/2000/svg">
<circle cx="28.5" cy="28.5" r="28.5" fill="#FCEEE9"/>
<g clip-path="url(#clip0)">
<path d="M48.5 35.0781C44.8552 35.0781 41.443 37.0384 39.5949 40.1938C39.3701 40.5777 39.499 41.0713 39.8829 41.2961C40.2669 41.5211 40.7604 41.3922 40.9853 41.008C42.5455 38.3442 45.4249 36.6895 48.5 36.6895C53.2979 36.6895 57.2012 40.5928 57.2012 45.3906C57.2012 50.1884 53.2979 54.0918 48.5 54.0918C43.7021 54.0918 39.7988 50.1884 39.7988 45.3906C39.7988 45.0138 39.8232 44.6347 39.8713 44.2639C39.9286 43.8226 39.6174 43.4185 39.1761 43.3612C38.7348 43.3028 38.3307 43.6152 38.2734 44.0564C38.2164 44.4959 38.1875 44.9448 38.1875 45.3907C38.1875 51.0771 42.8136 55.7032 48.5 55.7032C54.1864 55.7032 58.8125 51.0771 58.8125 45.3907C58.8125 39.7044 54.1864 35.0781 48.5 35.0781ZM49.4668 38.3008H47.5332C46.7336 38.3008 46.083 38.9513 46.083 39.751V42.9736H42.8604C42.0607 42.9736 41.4102 43.6242 41.4102 44.4238V46.3574C41.4102 47.1571 42.0607 47.8076 42.8604 47.8076H46.083V51.0303C46.083 51.8299 46.7336 52.4805 47.5332 52.4805H49.4668C50.2664 52.4805 50.917 51.8299 50.917 51.0303V47.8076H54.1396C54.9393 47.8076 55.5898 47.1571 55.5898 46.3574V44.4238C55.5898 43.6242 54.9393 42.9736 54.1396 42.9736H50.917V39.751C50.917 38.9513 50.2664 38.3008 49.4668 38.3008ZM53.9785 44.585V46.1963H50.4336C49.8116 46.1963 49.3057 46.7022 49.3057 47.3242V50.8691H47.6943V47.3242C47.6943 46.7022 47.1884 46.1963 46.5664 46.1963H43.0215V44.585H46.5664C47.1884 44.585 47.6943 44.079 47.6943 43.457V39.9121H49.3057V43.457C49.3057 44.079 49.8116 44.585 50.4336 44.585H53.9785ZM60.4238 11.7139C60.4238 10.6774 59.5805 9.83398 58.5439 9.83398H38.4561C37.4195 9.83398 36.5762 10.6774 36.5762 11.7139V13.6475C36.5762 14.684 37.4195 15.5273 38.4561 15.5273H58.5439C59.5805 15.5273 60.4238 14.684 60.4238 13.6475V11.7139ZM58.8125 13.6475C58.8125 13.7956 58.692 13.916 58.5439 13.916H38.4561C38.308 13.916 38.1875 13.7956 38.1875 13.6475V11.7139C38.1875 11.5657 38.308 11.4453 38.4561 11.4453H58.5439C58.692 11.4453 58.8125 11.5657 58.8125 11.7139V13.6475ZM67.5674 30.7812H48.6134C47.8035 30.7812 47.0516 30.379 46.6024 29.7049L45.2931 27.7411C44.5443 26.6179 43.2913 25.9473 41.9413 25.9473H31.8786V9.02832C31.8786 7.69564 32.9628 6.61133 34.2956 6.61133H62.7044C64.0372 6.61133 65.1214 7.69564 65.1214 9.02832V27.8271C65.1214 28.2722 65.4821 28.6328 65.9271 28.6328C66.372 28.6328 66.7327 28.2722 66.7327 27.8271V9.02832C66.7327 6.80705 64.9257 5 62.7044 5H34.2956C32.0743 5 30.2673 6.80705 30.2673 9.02832V25.9473H29.4326C27.2113 25.9473 25.4043 27.7543 25.4043 29.9756V55.9717C25.4043 58.1929 27.2113 60 29.4326 60H67.5674C69.7887 60 71.5957 58.1929 71.5957 55.9717V34.8096C71.5957 32.5883 69.7887 30.7812 67.5674 30.7812V30.7812ZM69.9844 55.9717C69.9844 57.3044 68.9002 58.3887 67.5674 58.3887H29.4326C28.0998 58.3887 27.0156 57.3044 27.0156 55.9717V29.9756C27.0156 28.6429 28.0998 27.5586 29.4326 27.5586H41.9413C42.7512 27.5586 43.5031 27.9609 43.9523 28.635L45.2616 30.5987C46.0104 31.7219 47.2634 32.3926 48.6134 32.3926H67.5674C68.9002 32.3926 69.9844 33.4769 69.9844 34.8096V55.9717ZM59.6182 21.9727H37.3818C36.9369 21.9727 36.5762 22.3333 36.5762 22.7783C36.5762 23.2234 36.9369 23.584 37.3818 23.584H59.6182C60.0631 23.584 60.4238 23.2234 60.4238 22.7783C60.4238 22.3333 60.0631 21.9727 59.6182 21.9727ZM59.6182 18.75H37.3818C36.9369 18.75 36.5762 19.1106 36.5762 19.5557C36.5762 20.0007 36.9369 20.3613 37.3818 20.3613H59.6182C60.0631 20.3613 60.4238 20.0007 60.4238 19.5557C60.4238 19.1106 60.0631 18.75 59.6182 18.75Z" fill="#223645"/>
</g>
<defs>
<clipPath id="clip0">
<rect width="55" height="55" fill="white" transform="translate(21 5)"/>
</clipPath>
</defs>
</svg>
