<svg width="76" height="60" viewBox="0 0 76 60" fill="none" xmlns="http://www.w3.org/2000/svg">
<circle cx="28.5" cy="28.5" r="28.5" fill="#FCEEE9"/>
<g clip-path="url(#clip0)">
<path d="M70.7134 21.0488C68.3412 18.2263 65.653 15.027 65.653 12.3334C65.7278 11.2914 66.1111 10.2953 66.7541 9.47197C67.3352 8.5837 67.3826 7.44825 66.8775 6.51465C66.3724 5.58105 65.396 4.99946 64.3344 5H38.153C31.8455 5 22.5696 22.4354 22.5696 27.9166C22.5935 28.9975 22.679 30.0761 22.8256 31.1473C23.3081 35.2467 23.5288 39.3725 23.4863 43.5C23.5364 47.9188 23.12 52.3305 22.2437 56.6619C22.0653 57.4778 22.2676 58.3306 22.7934 58.9795C23.3138 59.6265 24.1 60.0019 24.9302 60H28.9863C30.5044 59.9984 31.7347 58.7681 31.7363 57.25V34.3334C31.7076 32.4348 31.5108 30.5423 31.1481 28.6785C30.9728 27.8231 30.8629 26.9555 30.8196 26.0834C30.8196 23.3795 30.8196 20.5834 39.9863 20.5834C43.1767 20.5834 45.4863 18.3934 45.4863 16.9167C45.4727 16.5115 45.4004 16.1105 45.2714 15.7262C45.1933 15.4722 45.23 15.1967 45.3717 14.972C45.5067 14.7571 45.7298 14.6131 45.9813 14.5786C48.5538 14.2645 51.1449 14.1269 53.7363 14.1668C60.6301 14.1668 66.524 24.7475 66.5696 26.0835C66.6387 27.0755 66.2747 28.0489 65.5715 28.7521C64.8683 29.4552 63.8949 29.8193 62.9029 29.7502H40.9029C37.434 29.7502 33.5695 33.1385 33.5695 38.0884C33.5691 39.0246 34.1996 39.8435 35.1048 40.0824C36.0295 40.3398 37.0116 39.942 37.4968 39.1137C39.023 36.55 41.0945 35.2501 43.6529 35.2501H55.5695C58.5639 35.2501 62.9029 37.181 62.9029 38.0001V38.2141C62.9051 38.6125 62.6927 38.9814 62.347 39.1795C62.0167 39.3761 61.606 39.3792 61.2728 39.1875C58.3852 37.6844 55.156 36.9592 51.9029 37.0834C43.165 37.0834 38.1529 40.0903 38.1529 45.3334C38.1109 47.2659 38.4312 49.1893 39.0974 51.0038C38.3355 50.4923 37.6227 49.9114 36.9677 49.2686C36.7432 49.0439 36.4184 48.9517 36.1092 49.0246C35.8002 49.0975 35.5508 49.3253 35.4504 49.6266C35.3886 49.811 33.9554 54.1858 34.9213 57.9263C35.2346 59.1459 36.3334 59.9989 37.5926 60H59.2363C65.644 60 69.3196 57.6613 69.3196 53.5834C69.3778 51.7992 68.8465 50.0454 67.8077 48.5936C67.7101 48.4468 67.5848 48.2588 67.5222 48.1532C67.7269 47.9541 67.943 47.7672 68.1694 47.5932C69.0413 46.891 70.2364 45.9296 70.2364 44.4166C70.2284 43.4632 69.8566 42.5486 69.1971 41.86C70.3195 41.289 71.0615 40.1726 71.153 38.9166C71.1113 38.2862 70.9211 37.6745 70.598 37.1316C70.418 36.8354 70.2954 36.508 70.2363 36.1666V33.8369C70.2326 33.3956 70.4716 32.988 70.8585 32.7756C71.9125 32.2294 72.8655 31.5072 73.6765 30.6402C74.3805 29.9045 74.7876 28.9345 74.8196 27.9166C74.8196 25.9343 72.9166 23.6704 70.7134 21.0488ZM72.2962 29.434C71.6289 30.1359 70.848 30.7203 69.9866 31.163C69.0075 31.6956 68.3995 32.7224 68.403 33.837V36.1667C68.4447 36.7972 68.6349 37.4089 68.9581 37.9518C69.138 38.2479 69.2607 38.5754 69.3198 38.9167C69.3198 39.8643 67.746 40.6109 67.1963 40.7971C66.847 40.9153 66.6023 41.2311 66.5749 41.5991C66.5475 41.967 66.7429 42.3155 67.071 42.4841C67.8089 42.8666 68.3082 43.5911 68.403 44.4168C68.403 45.0519 67.668 45.6433 67.02 46.1651C66.3172 46.7309 65.653 47.2648 65.653 48.0835C65.7021 48.6448 65.9218 49.1777 66.2823 49.6106C67.1203 50.7611 67.5446 52.1612 67.4863 53.5834C67.4863 57.72 61.7168 58.1667 59.2363 58.1667H37.5926C37.1695 58.1657 36.8007 57.8782 36.6965 57.4681C36.3076 55.5264 36.3517 53.5229 36.8254 51.6001C38.2467 52.7305 39.8031 53.6797 41.4588 54.4259C41.8626 54.5989 42.3325 54.4611 42.5788 54.0973C42.8251 53.7334 42.7785 53.246 42.4677 52.9354C40.8215 51.2887 39.9863 48.7311 39.9863 45.3335C39.9863 41.2555 44.3297 38.9168 51.9029 38.9168C54.8379 38.7937 57.7544 39.4362 60.3659 40.781C61.2657 41.2985 62.3743 41.2922 63.268 40.7645C64.1811 40.2409 64.742 39.2666 64.7362 38.2141V38C64.7362 35.1954 58.2909 33.4166 55.5695 33.4166H43.653C40.3989 33.4678 37.433 35.2933 35.9213 38.1754C35.8576 38.2966 35.716 38.3546 35.5856 38.3128C35.404 38.2636 35.403 38.1271 35.403 38C35.403 34.0245 38.606 31.5834 40.903 31.5834H62.903C64.3816 31.6518 65.8207 31.0943 66.8673 30.0477C67.9139 29.0011 68.4714 27.562 68.403 26.0834C68.403 23.5518 61.4538 12.3334 53.7364 12.3334C51.0582 12.2966 48.3807 12.4405 45.7219 12.7639C44.9415 12.8752 44.2489 13.3221 43.8259 13.9872C43.3956 14.6635 43.2831 15.4943 43.5179 16.2606C43.5893 16.4663 43.6351 16.6801 43.654 16.8971C42.8701 18.1476 41.4581 18.861 39.9864 18.7501C30.7866 18.7501 28.9864 21.4388 28.9864 26.0835C29.0268 27.0597 29.1453 28.0311 29.3409 28.9884C29.6871 30.7498 29.8752 32.5386 29.903 34.3335V57.25C29.9025 57.7561 29.4924 58.1662 28.9864 58.1666H24.9302C24.6538 58.169 24.3916 58.0441 24.2194 57.8278C24.0432 57.6098 23.9756 57.3234 24.036 57.0494C24.9395 52.5907 25.3698 48.049 25.3196 43.5C25.3628 39.3029 25.1379 35.1072 24.6464 30.9388C24.5085 29.9368 24.4272 28.9279 24.4029 27.9167C24.4029 22.7989 33.3324 6.83337 38.1529 6.83337H64.3343C64.7224 6.83272 65.0796 7.0451 65.2645 7.38638C65.4493 7.72766 65.4322 8.14284 65.2197 8.46758C64.3765 9.58702 63.8888 10.9338 63.8196 12.3335C63.8196 15.6954 66.7362 19.1659 69.3098 22.2283C71.1171 24.379 72.9863 26.6026 72.9863 27.9167C72.9477 28.4894 72.7025 29.0286 72.2962 29.434Z" fill="#223645"/>
<path d="M54.3845 17.5647C54.6195 17.3338 54.7126 16.9946 54.6283 16.6762C54.544 16.3577 54.2953 16.109 53.9768 16.0247C53.6583 15.9404 53.3191 16.0335 53.0883 16.2685C51.5503 17.8064 48.2677 17.8332 48.2355 17.8332C47.7292 17.8335 47.3191 18.2441 47.3193 18.7504C47.3195 19.2567 47.7302 19.6668 48.2365 19.6666C48.4019 19.6666 52.3067 19.643 54.3845 17.5647Z" fill="#223645"/>
<path d="M43.2422 21.5966C43.0251 21.7054 42.8601 21.8961 42.7838 22.1266C42.6236 22.6068 42.8829 23.1259 43.363 23.2864C46.1473 24.023 49.0245 24.3477 51.903 24.2501C57.9008 24.2501 59.9713 20.2472 60.0563 20.0767C60.2037 19.7837 60.1833 19.4341 60.0028 19.1603C59.8223 18.8864 59.5091 18.7299 59.1817 18.7497C58.8543 18.7696 58.5624 18.963 58.4164 19.2568C58.4003 19.2886 56.7801 22.4168 51.9031 22.4168C49.2214 22.5024 46.5412 22.2095 43.9413 21.5467C43.7108 21.4698 43.4593 21.4878 43.2422 21.5966Z" fill="#223645"/>
<path d="M45.7746 25.2135C45.2942 25.0538 44.7752 25.3138 44.6155 25.7942C44.4558 26.2746 44.7158 26.7936 45.1962 26.9533C47.6759 27.6487 50.2448 27.9734 52.8196 27.9169C60.3159 27.9169 62.4196 26.0302 62.6343 25.815C62.9824 25.4653 62.9864 24.9015 62.6433 24.547C62.297 24.1883 61.7292 24.1675 61.3577 24.4999C61.3399 24.516 59.4993 26.0835 52.8195 26.0835C50.4417 26.1314 48.0693 25.8385 45.7746 25.2135Z" fill="#223645"/>
</g>
<defs>
<clipPath id="clip0">
<rect width="55" height="55" fill="white" transform="translate(21 5)"/>
</clipPath>
</defs>
</svg>
