<svg width="76" height="60" viewBox="0 0 76 60" fill="none" xmlns="http://www.w3.org/2000/svg">
<circle cx="28.5" cy="28.5" r="28.5" fill="#FCEEE9"/>
<path d="M29.1642 59.7853C28.6903 59.7853 28.3048 59.3997 28.3048 58.9259V54.629C28.3048 52.9705 29.6541 51.6212 31.3126 51.6212H36.392V47.2169H33.4613C31.8028 47.2169 30.4535 45.8676 30.4535 44.2091C30.4535 42.5506 31.8028 41.2013 33.4613 41.2013H37.2204C37.6942 41.2013 38.0798 41.5868 38.0798 42.0607C38.0798 42.5345 37.6942 42.92 37.2204 42.92H33.4613C32.7505 42.92 32.1722 43.4983 32.1722 44.2091C32.1722 44.9199 32.7505 45.4982 33.4613 45.4982H50.6483C51.3592 45.4982 51.9374 44.9199 51.9374 44.2091C51.9374 43.4983 51.3592 42.92 50.6483 42.92H46.8884C46.4145 42.92 46.029 42.5345 46.029 42.0607C46.029 41.5868 46.4145 41.2013 46.8884 41.2013H50.6483C52.7028 41.2013 54.6419 40.3936 56.1083 38.9269C57.5749 37.4601 58.3827 35.521 58.3827 33.467C58.3827 33.0708 58.3511 32.6685 58.2887 32.2716L58.2613 32.0973L58.0851 32.0903C57.5994 32.071 57.1202 31.9831 56.6603 31.8293L56.4938 31.7735L56.0826 32.4857C55.6821 33.1794 55.0332 33.6763 54.2555 33.8846C53.9968 33.954 53.7318 33.9891 53.468 33.9891C53.2916 33.9891 53.1099 33.9721 52.9279 33.9385L52.7787 33.911L51.5363 36.063C51.1922 36.6591 50.5492 37.0293 49.8581 37.0293C49.5213 37.0293 49.1883 36.9399 48.895 36.7707L42.3829 33.0109C41.9366 32.7534 41.6172 32.3363 41.4832 31.8366C41.3493 31.3368 41.4175 30.8158 41.6751 30.3696L42.9171 28.2184L42.8186 28.1029C42.5274 27.7616 42.3199 27.3654 42.202 26.9256C41.9937 26.1478 42.0994 25.3375 42.5 24.6439L48.4082 14.4105C48.8086 13.7167 49.4576 13.2199 50.2352 13.0116C50.4934 12.9425 50.758 12.9073 51.0217 12.9073C51.2031 12.9073 51.3851 12.924 51.5629 12.957L51.7123 12.9846L53.1616 10.4743L53.1 10.367C52.7566 9.76867 52.756 9.02854 53.0984 8.43546L54.7101 5.64453C54.8248 5.4458 55.0101 5.30357 55.2318 5.24406C55.3043 5.22473 55.3791 5.21484 55.4541 5.21484C55.6048 5.21484 55.7535 5.2547 55.8839 5.33L66.1172 11.2382C66.316 11.3529 66.4583 11.5382 66.5177 11.76C66.5771 11.9817 66.5467 12.2133 66.4317 12.4121L64.8204 15.203C64.5629 15.6494 64.1458 15.9688 63.6461 16.1027C63.4822 16.1466 63.3138 16.1692 63.1455 16.1696L63.0219 16.1699L61.5735 18.6788L61.672 18.7943C62.4979 19.7622 62.6263 21.152 61.991 22.2523L61.5787 22.9664L61.7099 23.0828C62.8152 24.0633 63.4489 25.4689 63.4489 26.9393C63.4489 27.3112 63.4077 27.6861 63.3262 28.0536L63.3114 28.1202L63.3378 28.1831C64.0416 29.8608 64.3983 31.6385 64.3983 33.4669C64.3983 37.1276 62.9648 40.5772 60.3617 43.1803C60.1992 43.3427 60.031 43.5031 59.8614 43.6569L59.7036 43.8L59.8453 43.959C61.1881 45.4654 61.9276 47.4046 61.9276 49.4191V51.6212H65.6876C67.3461 51.6212 68.6954 52.9705 68.6954 54.629V58.9259C68.6954 59.3997 68.3099 59.7853 67.8361 59.7853H29.1642V59.7853ZM31.3126 53.34C30.6018 53.34 30.0236 53.9182 30.0236 54.629V58.0665H66.9767V54.629C66.9767 53.9182 66.3984 53.34 65.6876 53.34H31.3126ZM58.1844 44.9589C57.5661 45.3674 56.9131 45.7266 56.2435 46.0267L55.9272 46.1685L56.1951 46.3887C57.1075 47.1385 57.6308 48.2431 57.6308 49.4189V51.6211H60.2089V49.4189C60.2089 47.7727 59.5878 46.2003 58.46 44.9916L58.3361 44.8588L58.1844 44.9589ZM47.7786 51.6212H55.912V49.4191C55.912 48.2048 54.9242 47.2169 53.7099 47.2169H47.7786V51.6212V51.6212ZM38.1107 51.6212H46.0598V47.2169H38.1107V51.6212ZM61.98 30.5384C61.4576 31.0733 60.8145 31.4957 60.1205 31.7598L59.9573 31.8218L59.9846 31.9942C60.0622 32.4829 60.1014 32.9785 60.1014 33.467C60.1014 35.9804 59.1148 38.3511 57.3236 40.1423C56.2311 41.2349 54.8859 42.0501 53.4336 42.4999L53.1858 42.5766L53.3074 42.8057C53.5355 43.2361 53.656 43.7213 53.6559 44.2091C53.6559 44.4121 53.6355 44.615 53.5951 44.8123L53.5249 45.1562L53.8632 45.0622C55.8427 44.5127 57.6696 43.4416 59.1463 41.9649C61.4248 39.6865 62.6796 36.6684 62.6796 33.4669C62.6796 32.509 62.5662 31.5571 62.3424 30.6377L62.2507 30.2611L61.98 30.5384ZM43.0563 31.4151L49.9406 35.3898L51.2297 33.1569L44.3455 29.1824L43.0563 31.4151ZM52.8334 32.0981C53.0275 32.2102 53.2482 32.2695 53.4717 32.2695C53.5855 32.2695 53.6994 32.2543 53.8107 32.2245C54.145 32.1349 54.4233 31.9224 54.5943 31.6264L55.0067 30.9122L54.8755 30.7959C53.7702 29.8154 53.1364 28.4098 53.1364 26.9393C53.1364 24.0962 55.4495 21.7831 58.2927 21.7831C58.8477 21.7831 59.3969 21.8726 59.9249 22.0494L60.0914 22.1051L60.5025 21.393C60.8578 20.7776 60.6462 19.9876 60.0306 19.6321L51.6579 14.7982C51.4637 14.6861 51.2429 14.6269 51.0195 14.6269C50.9058 14.6269 50.7919 14.6421 50.6806 14.6718C50.3461 14.7614 50.0678 14.9739 49.897 15.27L43.9888 25.5034C43.8178 25.7995 43.773 26.1466 43.8626 26.4809C43.9495 26.8056 44.1525 27.0775 44.4356 27.2494L44.4516 27.2654L44.4787 27.2747L52.8334 32.0981ZM58.2926 23.5018C56.3971 23.5018 54.8551 25.0438 54.8551 26.9393C54.8551 28.8348 56.3971 30.3768 58.2926 30.3768C60.188 30.3768 61.7301 28.8348 61.7301 26.9393C61.7301 25.0438 60.188 23.5018 58.2926 23.5018ZM53.2613 13.7393L60.1457 17.7139L61.4349 15.481L54.5504 11.5064L53.2613 13.7393ZM54.4797 9.48078L63.2245 14.5296L64.5135 12.297L55.7687 7.24812L54.4797 9.48078Z" fill="#223645"/>
<path d="M42.0547 42.9199C41.5806 42.9199 41.1949 42.5344 41.1949 42.0605C41.1949 41.5867 41.5802 41.2012 42.0539 41.2012C42.5286 41.2012 42.9141 41.5867 42.9141 42.0605C42.9141 42.5344 42.5286 42.9199 42.0547 42.9199Z" fill="#223645"/>
</svg>
