<svg width="76" height="60" viewBox="0 0 76 60" fill="none" xmlns="http://www.w3.org/2000/svg">
<circle cx="28.5" cy="28.5" r="28.5" fill="#FCEEE9"/>
<path d="M63.3804 32.4889C63.2814 32.4779 63.1824 32.4779 63.0943 32.4779C62.0051 32.4779 60.9269 32.6099 59.8817 32.874C56.0639 33.8531 52.9063 36.5157 51.289 40.1134H51.234C50.3648 39.7503 49.7927 39.5303 48.6045 39.5303H43.9065V37.8799C45.2708 37.2528 46.5141 36.3947 47.5813 35.3494C49.1436 33.7981 50.2438 31.8397 50.7829 29.7053C52.3672 29.6283 53.6325 28.242 53.6325 26.5477C53.6325 24.9854 52.5983 23.6871 51.168 23.4341V22.0478C53.9295 23.181 57.1092 22.1358 58.6495 19.5833C60.1898 17.0308 59.6397 13.7412 57.3732 11.8158C57.2632 11.6508 57.0981 11.5187 56.9111 11.4637C56.8121 11.3977 56.7131 11.3317 56.592 11.2547C54.1936 9.80238 51.113 10.1875 49.1326 12.1899C47.3722 9.51633 44.6437 7.63496 41.5191 6.94182C40.6499 6.75478 39.7697 6.65576 38.8785 6.65576C34.7967 6.65576 30.99 8.69116 28.7125 12.0798C28.5915 12.1899 28.4925 12.3329 28.4485 12.4869C27.6673 13.7412 27.1172 15.1384 26.8422 16.5907H26.8312L26.6111 23.4561C25.2908 23.7752 24.2897 25.0404 24.2897 26.5367C24.2897 28.176 25.4559 29.5293 26.9742 29.6833C27.9534 33.4791 30.6819 36.5927 34.3126 38.056V39.5413H29.6587C24.8838 39.5413 21 43.37 21 48.134V57.4418C21 57.9369 21.3961 58.333 21.8912 58.344H62.4342C62.6432 58.344 62.8633 58.344 63.0723 58.344C70.2017 58.344 75.9999 52.5348 75.9999 45.4054C76.0219 38.386 70.4108 32.6429 63.3804 32.4889ZM26.072 26.5367C26.061 26.0746 26.27 25.6455 26.6331 25.3595V26.6687C26.6331 27.0318 26.6551 27.3949 26.6881 27.7469C26.292 27.4719 26.061 27.0208 26.072 26.5367ZM60.7179 37.0878C60.7179 37.0768 60.7179 37.0658 60.7179 37.0658L61.0699 34.4253C61.543 34.3372 62.0161 34.2822 62.5002 34.2602V35.1514C62.2802 36.4167 62.5332 37.4399 63.1493 38.144C63.7325 38.8151 64.5686 39.1012 65.6799 39.1012H65.6909C66.186 39.1012 66.7361 39.3432 67.2202 39.5743C69.8057 40.7845 70.9169 43.8541 69.7287 46.4396L67.7593 50.2464C66.8131 52.0287 64.9977 53.195 62.9733 53.294H62.8853C61.8511 53.283 60.9379 52.6449 60.5638 51.6877C60.0247 50.3234 58.4734 49.6633 57.1202 50.2134C56.251 50.5655 55.6349 51.3356 55.4808 52.2598L55.3048 53.426C55.0077 53.129 54.7217 52.8209 54.4466 52.4908L54.6667 51.6327C54.6777 51.6107 54.6777 51.5887 54.6887 51.5667C55.0407 49.2782 57.3292 49.1132 58.0223 49.1132H58.1324C58.1544 49.1132 58.1764 49.0912 58.1984 49.0912C58.4184 49.0692 58.6385 49.0472 58.8585 49.0362C60.0577 48.9591 61.191 48.8931 62.0711 48.277C63.7105 47.1438 64.0625 45.7575 64.0625 44.8003C64.0625 43.337 63.2264 41.7747 61.8841 40.7185C61.8621 40.6965 61.8291 40.6745 61.8071 40.6635C61.268 40.3334 60.9819 39.6733 60.8389 39.1892C60.6409 38.5071 60.6078 37.7919 60.7179 37.0878ZM52.5983 41.5767C53.7205 38.4961 56.141 36.0646 59.2106 34.9314L58.9795 36.8347C58.8255 37.7809 58.8915 38.7491 59.1446 39.6733C59.4636 40.7845 60.0467 41.6207 60.8279 42.1268C61.7191 42.8419 62.3022 43.8871 62.3022 44.7893C62.3022 45.5705 61.8841 46.2526 61.0699 46.8137C60.5858 47.1438 59.6947 47.2208 58.7595 47.2758C58.5504 47.2868 58.3304 47.3418 58.1103 47.3418H58.0333C56.174 47.3418 53.8965 48.167 53.1484 50.4884C51.7291 47.7269 51.531 44.5033 52.5983 41.5767ZM51.8721 26.5367C51.8721 27.1198 51.5641 27.6259 51.113 27.835C51.146 27.4499 51.168 27.0648 51.168 26.6687V25.2604C51.6081 25.4915 51.8721 25.9756 51.8721 26.5367ZM57.1422 18.6701C56.141 20.3095 54.1826 21.0906 52.3232 20.5955L57.7253 16.9538C57.6593 17.5589 57.4612 18.142 57.1422 18.6701ZM57.5052 14.9844L51.168 19.2643V18.9122C51.168 18.5051 51.146 18.087 51.102 17.6799L56.559 13.4661C56.9771 13.9062 57.2962 14.4123 57.5052 14.9844ZM55.0187 12.4319L50.7389 15.7326C50.5629 15.0834 50.3318 14.4453 50.0568 13.8292C51.212 12.3109 53.2364 11.7498 55.0187 12.4319ZM31.4741 11.4967C33.4325 9.51633 36.106 8.41611 38.8895 8.41611C39.1756 8.41611 39.4617 8.42711 39.7477 8.44912C36.6671 11.4197 33.3554 12.0358 31.001 12.0028C31.155 11.8268 31.32 11.6508 31.4741 11.4967ZM29.8017 13.6862C30.2748 13.7302 30.7589 13.7632 31.232 13.7632C34.1366 13.7632 38.1964 12.861 41.8381 8.83419C42.5203 9.03223 43.1694 9.29628 43.7965 9.62635C41.365 13.3781 38.0534 15.5895 33.9276 16.2057C32.2222 16.4477 30.4839 16.4147 28.7895 16.0956C29.0206 15.2595 29.3617 14.4453 29.8017 13.6862ZM28.3935 18.9122C28.3935 18.5491 28.4155 18.197 28.4595 17.834C29.5157 18.032 30.5939 18.131 31.6831 18.131C32.4973 18.131 33.3114 18.076 34.1146 17.955C37.3712 17.4929 41.8821 15.8206 45.2818 10.5725C46.5031 11.4967 47.5043 12.685 48.2084 14.0492C48.2304 14.1262 48.2744 14.1923 48.3184 14.2583C48.8025 15.2155 49.1326 16.2387 49.2866 17.3059C49.3746 17.834 49.4186 18.3731 49.4186 18.9122V19.4513C47.9553 18.3291 46.8661 16.7778 46.327 15.0174C46.206 14.5443 45.7219 14.2583 45.2488 14.3793C45.0178 14.4343 44.8197 14.5883 44.6987 14.7864C40.3968 22.2018 31.034 20.8816 28.3935 20.3535V18.9122V18.9122ZM28.3935 26.6797V22.1578C29.8458 22.4219 31.309 22.5539 32.7833 22.5539C36.7111 22.5539 41.8821 21.5637 45.2598 17.1298C46.184 18.9782 47.6253 20.5295 49.4076 21.5747V26.6907C49.4076 32.4889 44.6987 37.1978 38.9005 37.1978C33.1024 37.1978 28.3935 32.4779 28.3935 26.6797ZM38.1964 56.5947H38.1854H22.7824V48.134C22.7824 44.3382 25.885 41.3016 29.6807 41.3016H30.4839V44.7893C29.6477 44.9543 28.8776 45.3614 28.2834 45.9665C27.4473 46.7807 26.9742 47.8919 26.9632 49.0472V53.9211C26.9742 54.4162 27.3703 54.8123 27.8654 54.8233H29.2626C29.7467 54.8233 30.1428 54.4272 30.1428 53.9431C30.1428 53.459 29.7467 53.063 29.2626 53.063H28.7235V49.0472C28.7345 47.6279 29.8898 46.4726 31.309 46.4616H31.3531C32.7833 46.4616 34.0046 47.6059 34.0046 49.0472V53.074H33.0914C32.6073 53.074 32.2112 53.47 32.2112 53.9541C32.2112 54.4382 32.6073 54.8343 33.0914 54.8343H34.8407C35.3358 54.8343 35.7539 54.4382 35.7759 53.9321V49.0582C35.7649 46.9787 34.2906 45.1854 32.2552 44.7783V41.3016H34.8958L38.1964 44.6023V56.5947ZM36.095 40.0144V38.6171C37.0082 38.8261 37.9544 38.9252 38.8895 38.9362C39.9898 38.9362 41.079 38.7931 42.1462 38.5071V40.0034L39.0326 43.007L36.095 40.0144ZM39.9458 56.5947V44.6133L43.3564 41.3016H45.5569V48.167C43.9725 48.5741 42.8723 49.9933 42.8613 51.6217C42.8723 53.5911 44.4676 55.1864 46.437 55.1754C48.4064 55.1644 50.0017 53.5691 49.9907 51.5997C49.9907 50.6645 49.6167 49.7623 48.9565 49.1022C48.4944 48.6621 47.9333 48.343 47.3172 48.167V41.3016H48.6045C49.4296 41.3016 49.7597 41.4116 50.5519 41.7417L50.6839 41.7857C50.3428 42.963 50.1668 44.1842 50.1668 45.4164C50.1558 48.156 51.0249 50.8295 52.6533 53.0409C52.7083 53.195 52.8183 53.338 52.9503 53.437C53.5114 54.1632 54.1606 54.8233 54.8647 55.4064C55.3818 55.8465 55.9429 56.2426 56.537 56.5947H39.9458V56.5947ZM46.426 49.8173C47.4272 49.8173 48.2304 50.6205 48.2304 51.6217C48.2304 52.6229 47.4272 53.426 46.426 53.426C45.4248 53.426 44.6217 52.6229 44.6217 51.6217C44.6107 50.6315 45.4138 49.8173 46.426 49.8173ZM63.0943 56.5836C62.9953 56.5836 62.9073 56.5947 62.8083 56.5947C62.7643 56.5947 62.7093 56.5947 62.6653 56.5947H62.5002C60.4868 56.4846 58.5394 55.8355 56.8671 54.7023C56.8891 54.6473 56.9001 54.5813 56.9111 54.5152L57.2192 52.5238C57.2962 52.0398 57.7473 51.6987 58.2424 51.7757C58.5504 51.8307 58.8145 52.0397 58.9355 52.3368C59.5736 53.9651 61.147 55.0433 62.8963 55.0433H63.0063C63.0173 55.0433 63.0283 55.0323 63.0393 55.0213C65.7019 54.9223 68.1003 53.404 69.3436 51.0496L71.324 47.2428C71.335 47.2318 71.335 47.2208 71.346 47.2098C72.9633 43.7441 71.467 39.6183 68.0013 37.99C67.3412 37.6819 66.549 37.3628 65.6909 37.3628C65.1187 37.3738 64.7117 37.2528 64.4806 36.9888C64.2056 36.6697 64.1395 36.0866 64.2606 35.3274C64.2716 35.2834 64.2826 35.2394 64.2936 35.1954V34.2822C69.9927 34.8653 74.3166 39.6733 74.3056 45.3944C74.2726 51.5777 69.2556 56.5836 63.0943 56.5836Z" fill="#223645"/>
<path d="M35.985 25.2056C35.5009 25.2056 35.1048 25.6016 35.1048 26.0857V26.5698C35.1048 27.153 34.6317 27.6371 34.0486 27.6371C33.7736 27.6371 33.5095 27.527 33.3115 27.329C33.1134 27.1309 33.0144 26.8559 33.0144 26.5698V26.0857C33.0144 25.6016 32.6183 25.2056 32.1342 25.2056C31.6501 25.2056 31.2541 25.6016 31.2541 26.0857V26.5698C31.2431 27.318 31.5401 28.0331 32.0572 28.5612V28.5722C33.1574 29.6725 34.9398 29.6615 36.04 28.5612C36.5681 28.0331 36.8652 27.318 36.8652 26.5698V26.0857C36.8652 25.6016 36.4691 25.2056 35.985 25.2056Z" fill="#223645"/>
<path d="M45.6669 25.2056C45.1828 25.2056 44.7868 25.6016 44.7868 26.0857V26.5698C44.7978 27.153 44.3247 27.626 43.7415 27.637C43.7415 27.637 43.7416 27.637 43.7305 27.637C43.4555 27.637 43.1914 27.527 42.9934 27.329C42.8064 27.1309 42.6963 26.8559 42.6963 26.5698V26.0857C42.6963 25.6016 42.3003 25.2056 41.8162 25.2056C41.3321 25.2056 40.936 25.6016 40.936 26.0857V26.5698C40.936 27.318 41.222 28.0331 41.7502 28.5722C42.2783 29.1003 42.9934 29.3974 43.7415 29.3974C45.2929 29.3974 46.5581 28.1321 46.5471 26.5698V26.0857C46.5471 25.6016 46.151 25.2056 45.6669 25.2056Z" fill="#223645"/>
</svg>
