<svg width="76" height="60" viewBox="0 0 76 60" fill="none" xmlns="http://www.w3.org/2000/svg">
<circle cx="28.5" cy="28.5" r="28.5" fill="#FCEEE9"/>
<path d="M48.4814 35.5299C41.7781 35.3114 40.1705 29.5721 39.8263 27.7192C39.181 27.5697 38.606 27.2044 38.1964 26.6839C37.7288 26.0395 37.5118 25.2468 37.5862 24.4541C37.5331 24.027 37.5702 23.5935 37.6951 23.1816C37.8201 22.7698 38.0301 22.3887 38.3116 22.0631C38.4705 21.9002 38.6532 21.7624 38.8534 21.6543C37.6075 19.6429 36.9939 17.3039 37.0919 14.9399C37.8679 9.39528 42.3363 8.85569 43.7358 8.82447C44.3799 8.0753 45.1851 7.4815 46.0911 7.08751C47.7883 6.40293 49.6641 6.29841 51.4269 6.79022C54.8919 7.69474 57.2026 9.42947 58.2989 11.9468C59.8597 15.5248 58.4907 19.6431 57.7043 21.4923C58.0042 21.5898 58.2806 21.7485 58.5159 21.9583C58.8362 22.2834 59.0775 22.6777 59.2213 23.1108C59.3651 23.5439 59.4075 24.0043 59.3454 24.4564C59.4204 25.249 59.2037 26.0418 58.7359 26.6861C58.3259 27.2065 57.7507 27.5717 57.1053 27.7214C56.7611 29.5721 55.1572 35.3114 48.4814 35.5299ZM40.0954 22.8428C39.8318 22.8305 39.5739 22.9223 39.3774 23.0985C39.2414 23.289 39.1445 23.5046 39.0923 23.7329C39.0401 23.9611 39.0337 24.1974 39.0734 24.4281C39.0765 24.4777 39.0748 24.5275 39.0682 24.5768C39.0278 25.0034 39.138 25.4307 39.3796 25.7845C39.5304 25.9529 39.7132 26.0895 39.9174 26.1862C40.1216 26.2829 40.3431 26.3379 40.5688 26.3479C40.7388 26.368 40.8966 26.4461 41.0156 26.5691C41.1346 26.692 41.2076 26.8523 41.2221 27.0228C41.2467 27.2993 41.9059 33.8287 48.4829 34.0442C55.0234 33.8287 55.6857 27.2993 55.7102 27.0213C55.7251 26.8511 55.7982 26.6911 55.9172 26.5685C56.0362 26.4458 56.1938 26.3679 56.3635 26.3479C56.5893 26.338 56.8108 26.2831 57.015 26.1863C57.2192 26.0896 57.402 25.953 57.5527 25.7845C57.7954 25.4289 57.9056 24.9994 57.8641 24.5708C57.8579 24.523 57.8562 24.4748 57.8589 24.4266C57.8991 24.1883 57.8901 23.9444 57.8324 23.7097C57.7748 23.475 57.6697 23.2546 57.5237 23.062C57.2915 22.8911 57.0027 22.8155 56.7165 22.851C56.579 22.8754 56.4374 22.8605 56.3079 22.8081C56.1784 22.7557 56.0663 22.6679 55.9844 22.5547C55.9026 22.4415 55.8543 22.3075 55.8451 22.1681C55.8359 22.0287 55.8661 21.8895 55.9324 21.7666C55.9599 21.7145 58.6824 16.5475 56.9328 12.5318C56.0268 10.4566 54.049 9.00805 51.053 8.22616C49.613 7.81866 48.0789 7.89703 46.688 8.44914C45.8966 8.79007 45.2069 9.32979 44.6857 10.0159C44.6106 10.118 44.5105 10.1989 44.395 10.251C44.2795 10.3031 44.1526 10.3245 44.0264 10.3132C43.8339 10.2976 39.283 10.0033 38.5695 15.0908C38.5695 15.0908 38.3636 19.1377 40.7078 21.5904C40.81 21.6972 40.878 21.832 40.9031 21.9777C40.9283 22.1233 40.9094 22.2731 40.849 22.408C40.7934 22.5463 40.6952 22.6634 40.5687 22.7423C40.4422 22.8213 40.2939 22.858 40.1452 22.8472L40.0954 22.8428Z" fill="#223645"/>
<path d="M56.5871 22.8606C56.3953 22.8608 56.2108 22.7868 56.0723 22.6541C55.9338 22.5214 55.8519 22.3402 55.8439 22.1486C55.835 21.9561 55.6046 17.4662 52.2525 17.0343C50.7194 17.229 49.1626 17.1077 47.6781 16.6776C46.1936 16.2476 44.813 15.5181 43.6213 14.5341C42.6736 15.2468 40.49 17.4134 40.9099 22.0341C40.9155 22.2233 40.8487 22.4074 40.7231 22.549C40.5976 22.6906 40.4228 22.7789 40.2344 22.7961C40.0459 22.8133 39.858 22.7579 39.709 22.6413C39.56 22.5247 39.461 22.3557 39.4323 22.1687C38.8162 15.3895 43.1694 13.0364 43.3544 12.9398C43.4922 12.8679 43.649 12.841 43.8029 12.8629C43.9567 12.8847 44.0999 12.9543 44.2121 13.0617C45.2715 14.0212 46.5256 14.7406 47.8887 15.1707C49.2517 15.6009 50.6916 15.7315 52.1098 15.5538C52.1779 15.5428 52.247 15.5403 52.3157 15.5464C56.0944 15.9395 57.2486 19.9991 57.3304 22.0869C57.338 22.2836 57.2674 22.4752 57.1339 22.6199C57.0004 22.7645 56.815 22.8503 56.6184 22.8584L56.5871 22.8606Z" fill="#223645"/>
<path d="M69.3769 58.5132H27.623C27.4259 58.5132 27.2368 58.4349 27.0975 58.2955C26.9581 58.1561 26.8798 57.9671 26.8798 57.77V49.4843C26.8851 46.8655 27.9287 44.3557 29.7818 42.5053C31.6348 40.6549 34.1461 39.6149 36.7649 39.6133H38.1919C38.389 39.6133 38.5781 39.6916 38.7175 39.831C38.8569 39.9704 38.9352 40.1594 38.9352 40.3565C38.9352 40.5536 38.8569 40.7427 38.7175 40.8821C38.5781 41.0215 38.389 41.0998 38.1919 41.0998H36.7649C34.5402 41.1009 32.4068 41.9842 30.8324 43.556C29.2581 45.1277 28.3712 47.2596 28.3662 49.4843V57.0267H68.6337V49.4843C68.6311 47.2614 67.7469 45.1302 66.1751 43.5584C64.6032 41.9865 62.4721 41.1023 60.2492 41.0998H58.7196C58.5224 41.0998 58.3334 41.0215 58.194 40.8821C58.0546 40.7427 57.9763 40.5536 57.9763 40.3565C57.9763 40.1594 58.0546 39.9704 58.194 39.831C58.3334 39.6916 58.5224 39.6133 58.7196 39.6133H60.2492C62.866 39.617 65.3745 40.6582 67.2249 42.5086C69.0753 44.3589 70.1164 46.8675 70.1202 49.4843V57.77C70.1202 57.9671 70.0419 58.1561 69.9025 58.2955C69.7631 58.4349 69.574 58.5132 69.3769 58.5132Z" fill="#223645"/>
<path d="M50.9838 58.5135C50.8768 58.5135 50.7711 58.4904 50.6739 58.4458C50.5766 58.4012 50.4902 58.3362 50.4204 58.2551C50.3506 58.174 50.2991 58.0788 50.2695 57.976C50.2399 57.8732 50.2328 57.7652 50.2487 57.6595L53.2566 37.7532C53.2726 37.6479 53.311 37.5472 53.3692 37.458C53.4274 37.3688 53.5041 37.2932 53.5941 37.2363C53.6841 37.1793 53.7853 37.1424 53.8909 37.1279C53.9964 37.1135 54.1038 37.1219 54.2058 37.1526L59.3966 38.7172C59.4999 38.7483 59.5953 38.8017 59.676 38.8734C59.7566 38.9452 59.8207 39.0337 59.8637 39.1327C59.9067 39.2317 59.9276 39.3389 59.925 39.4469C59.9224 39.5548 59.8963 39.6609 59.8485 39.7577L57.7852 43.8976L58.9818 45.2406C59.0879 45.3605 59.1524 45.5114 59.1658 45.6709C59.1792 45.8304 59.1407 45.9899 59.0562 46.1258L51.6156 58.1612C51.549 58.2688 51.456 58.3577 51.3454 58.4193C51.2349 58.481 51.1104 58.5134 50.9838 58.5135ZM54.5989 38.8235L52.2614 54.2926L57.5035 45.8196L56.3418 44.5152C56.243 44.4044 56.1796 44.2665 56.1599 44.1193C56.1402 43.9721 56.165 43.8224 56.2311 43.6895L58.1249 39.8885L54.5989 38.8235Z" fill="#223645"/>
<path d="M45.9306 58.5134C45.8039 58.5135 45.6793 58.4812 45.5686 58.4195C45.4579 58.3579 45.3648 58.2689 45.2981 58.1611L37.8553 46.128C37.7707 45.9922 37.7322 45.8326 37.7456 45.6731C37.759 45.5136 37.8235 45.3627 37.9296 45.2428L39.1262 43.8998L37.063 39.7599C37.0152 39.6631 36.9891 39.557 36.9864 39.4491C36.9838 39.3412 37.0047 39.234 37.0477 39.1349C37.0907 39.0359 37.1548 38.9474 37.2355 38.8757C37.3161 38.8039 37.4115 38.7506 37.5149 38.7194L42.7057 37.1549C42.8076 37.1243 42.9149 37.116 43.0204 37.1305C43.1258 37.1449 43.2269 37.1819 43.3168 37.2388C43.4067 37.2958 43.4834 37.3714 43.5416 37.4605C43.5997 37.5496 43.6381 37.6502 43.654 37.7554L46.6634 57.6617C46.679 57.7671 46.6717 57.8747 46.6421 57.977C46.6124 58.0794 46.5611 58.1742 46.4916 58.255C46.4221 58.3357 46.336 58.4006 46.2392 58.4452C46.1424 58.4898 46.0372 58.5131 45.9306 58.5134V58.5134ZM39.4109 45.8174L44.653 54.2903L42.3155 38.8234L38.7895 39.8863L40.6826 43.6872C40.7488 43.8201 40.7737 43.9698 40.7541 44.117C40.7345 44.2641 40.6713 44.4021 40.5726 44.513L39.4109 45.8174Z" fill="#223645"/>
<path d="M48.5127 44.6556C46.9056 44.6544 45.3001 44.5572 43.7047 44.3642C43.6057 44.3552 43.5096 44.3264 43.422 44.2795C43.3344 44.2327 43.257 44.1687 43.1946 44.0915C43.1321 44.0142 43.0857 43.9252 43.0582 43.8298C43.0307 43.7343 43.0227 43.6343 43.0345 43.5356C43.0463 43.437 43.0778 43.3417 43.1271 43.2554C43.1764 43.1692 43.2425 43.0936 43.3214 43.0334C43.4004 42.9731 43.4906 42.9292 43.5869 42.9044C43.6831 42.8796 43.7833 42.8743 43.8815 42.8889C46.9191 43.2624 49.991 43.2624 53.0286 42.8889C53.2224 42.868 53.4166 42.9239 53.5694 43.0448C53.7223 43.1656 53.8216 43.3416 53.846 43.5349C53.8703 43.7282 53.8178 43.9234 53.6997 44.0784C53.5816 44.2333 53.4073 44.3357 53.2145 44.3635C51.6549 44.5592 50.0845 44.6568 48.5127 44.6556V44.6556Z" fill="#223645"/>
<path d="M53.9933 38.6075C53.8776 38.6071 53.7636 38.5797 53.6604 38.5274C53.5571 38.4752 53.4675 38.3995 53.3987 38.3065C52.2942 36.8134 52.0943 33.8538 52.0757 33.5215C52.0644 33.3248 52.1316 33.1316 52.2626 32.9845C52.3936 32.8373 52.5777 32.7482 52.7744 32.7367C52.9706 32.7275 53.1625 32.7954 53.3092 32.926C53.4559 33.0566 53.5457 33.2394 53.5592 33.4353C53.6046 34.2172 53.8796 36.4581 54.5931 37.4228C54.6746 37.5332 54.724 37.6641 54.7357 37.8009C54.7474 37.9377 54.721 38.075 54.6595 38.1977C54.5979 38.3204 54.5035 38.4236 54.3869 38.496C54.2702 38.5683 54.1358 38.6069 53.9985 38.6075H53.9933Z" fill="#223645"/>
<path d="M42.9211 38.607C42.7838 38.6064 42.6494 38.5678 42.5327 38.4954C42.416 38.4231 42.3217 38.3198 42.2601 38.1972C42.1985 38.0745 42.1721 37.9371 42.1838 37.8003C42.1955 37.6636 42.2449 37.5327 42.3265 37.4223C43.0415 36.4561 43.3157 34.2159 43.3611 33.4348C43.3667 33.3372 43.3915 33.2416 43.4341 33.1536C43.4767 33.0656 43.5362 32.9869 43.6092 32.9219C43.6822 32.8568 43.7674 32.8069 43.8597 32.7747C43.952 32.7426 44.0498 32.729 44.1474 32.7346C44.245 32.7403 44.3405 32.7651 44.4285 32.8077C44.5166 32.8503 44.5953 32.9098 44.6603 32.9828C44.7253 33.0558 44.7753 33.1409 44.8075 33.2333C44.8396 33.3256 44.8532 33.4234 44.8475 33.521C44.829 33.8532 44.6246 36.8128 43.5246 38.306C43.4548 38.4002 43.3638 38.4766 43.2589 38.5289C43.154 38.5812 43.0383 38.608 42.9211 38.607Z" fill="#223645"/>
<path d="M63.4803 48.0964C63.2868 48.0965 63.101 48.0212 62.9622 47.8864C62.8234 47.7517 62.7426 47.5681 62.737 47.3747C62.598 42.5348 60.7578 41.0119 60.7399 40.997C60.5864 40.8751 60.4868 40.6977 60.4626 40.5032C60.4384 40.3086 60.4916 40.1123 60.6106 39.9565C60.7288 39.8019 60.9032 39.7002 61.096 39.6735C61.2887 39.6468 61.4842 39.6972 61.64 39.8137C61.7381 39.8881 64.0607 41.6919 64.2235 47.3316C64.2291 47.5285 64.1563 47.7196 64.0212 47.8629C63.886 48.0061 63.6995 48.0899 63.5026 48.0957L63.4803 48.0964Z" fill="#223645"/>
<path d="M63.4838 52.4845C62.9027 52.4846 62.3346 52.3124 61.8513 51.9897C61.3681 51.6669 60.9914 51.2081 60.7689 50.6713C60.5464 50.1344 60.4881 49.5437 60.6014 48.9737C60.7147 48.4037 60.9945 47.8802 61.4053 47.4692C61.8162 47.0582 62.3397 46.7783 62.9096 46.6649C63.4796 46.5515 64.0703 46.6096 64.6072 46.832C65.1441 47.0543 65.6031 47.4309 65.9259 47.9141C66.2488 48.3972 66.4211 48.9653 66.4211 49.5464C66.4203 50.3253 66.1106 51.072 65.56 51.6228C65.0093 52.1736 64.2627 52.4835 63.4838 52.4845V52.4845ZM63.4838 48.0949C63.1967 48.0947 62.916 48.1797 62.6772 48.3392C62.4384 48.4986 62.2522 48.7252 62.1422 48.9904C62.0323 49.2557 62.0034 49.5475 62.0593 49.8292C62.1153 50.1108 62.2534 50.3695 62.4564 50.5726C62.6594 50.7757 62.918 50.914 63.1996 50.97C63.4812 51.0261 63.7731 50.9974 64.0384 50.8876C64.3037 50.7777 64.5304 50.5917 64.69 50.353C64.8495 50.1142 64.9346 49.8336 64.9346 49.5464C64.9342 49.1617 64.7813 48.7928 64.5093 48.5207C64.2373 48.2486 63.8686 48.0955 63.4838 48.0949V48.0949Z" fill="#223645"/>
<path d="M32.9529 48.0966C32.7646 48.0971 32.5831 48.026 32.4451 47.8979C32.3072 47.7697 32.223 47.5939 32.2096 47.4061C31.8046 41.7017 34.9477 39.8785 35.0815 39.8035C35.2532 39.7066 35.4564 39.6819 35.6463 39.7348C35.8362 39.7877 35.9973 39.9138 36.0942 40.0855C36.1911 40.2572 36.2158 40.4604 36.1629 40.6503C36.11 40.8402 35.9838 41.0013 35.8121 41.0982C35.6991 41.1651 33.3594 42.6092 33.6917 47.3013C33.7055 47.4979 33.6408 47.692 33.5116 47.8409C33.3823 47.9898 33.1993 48.0812 33.0027 48.0951L32.9529 48.0966Z" fill="#223645"/>
<path d="M31.4493 54.0472C31.3343 54.0477 31.2208 54.0215 31.1176 53.9707C31.0144 53.9199 30.9244 53.8458 30.8547 53.7544C30.4919 53.2779 30.2247 52.7358 30.0676 52.1579C29.7226 51.0322 29.8358 49.8158 30.3826 48.7731C30.9294 47.7305 31.8657 46.9457 32.9878 46.5895C33.5201 46.4398 34.0769 46.3977 34.6256 46.4656C35.1743 46.5335 35.704 46.71 36.1838 46.9849C37.0245 47.4707 37.697 48.2014 38.1114 49.0796C38.5258 49.9577 38.6623 50.9414 38.5027 51.8992C38.4704 52.0937 38.3621 52.2673 38.2018 52.382C38.0414 52.4966 37.8421 52.5429 37.6476 52.5105C37.4531 52.4782 37.2795 52.37 37.1648 52.2096C37.0502 52.0492 37.004 51.8499 37.0363 51.6554C37.1454 50.9992 37.0527 50.3252 36.7706 49.7227C36.4884 49.1202 36.0301 48.6175 35.4561 48.2811C35.1467 48.1024 34.8047 47.9872 34.4502 47.9421C34.0957 47.8971 33.7357 47.9231 33.3914 48.0187C32.6467 48.2678 32.0302 48.8005 31.6756 49.5012C31.3211 50.2019 31.2571 51.0142 31.4976 51.7617C31.6052 52.1574 31.7884 52.5284 32.0372 52.8543C32.1209 52.9644 32.1722 53.0958 32.1853 53.2335C32.1985 53.3712 32.1729 53.5099 32.1115 53.6339C32.0501 53.7578 31.9553 53.8622 31.8378 53.9352C31.7203 54.0082 31.5847 54.047 31.4464 54.0472H31.4493Z" fill="#223645"/>
<path d="M37.7796 52.5223C37.7506 52.5223 37.7208 52.5223 37.6911 52.5179L36.8535 52.419C36.7565 52.4075 36.6627 52.377 36.5776 52.3293C36.4924 52.2815 36.4174 52.2175 36.357 52.1407C36.2966 52.064 36.2519 51.9762 36.2254 51.8822C36.1989 51.7882 36.1912 51.6899 36.2028 51.5929C36.2143 51.4959 36.2448 51.4022 36.2925 51.317C36.3403 51.2318 36.4043 51.1569 36.4811 51.0965C36.636 50.9744 36.833 50.9189 37.0289 50.9422L37.8665 51.0418C38.0546 51.0642 38.2271 51.1575 38.3487 51.3028C38.4703 51.4481 38.5318 51.6343 38.5207 51.8234C38.5096 52.0125 38.4267 52.1903 38.2889 52.3203C38.1512 52.4503 37.969 52.5229 37.7796 52.5231V52.5223Z" fill="#223645"/>
<path d="M31.4492 54.0539C31.2747 54.0542 31.1057 53.993 30.9717 53.8811C30.8378 53.7693 30.7475 53.6138 30.7167 53.4421C30.6858 53.2703 30.7164 53.0932 30.803 52.9417C30.8897 52.7902 31.0269 52.674 31.1906 52.6135L32.0825 52.2843C32.174 52.2501 32.2713 52.2343 32.3689 52.2378C32.4665 52.2412 32.5625 52.2639 32.6514 52.3044C32.7402 52.345 32.8202 52.4026 32.8868 52.4741C32.9534 52.5456 33.0052 52.6294 33.0394 52.7209C33.0735 52.8124 33.0894 52.9098 33.0859 53.0074C33.0824 53.105 33.0598 53.201 33.0192 53.2898C32.9787 53.3787 32.921 53.4587 32.8496 53.5253C32.7781 53.5918 32.6942 53.6437 32.6027 53.6779L31.7108 54.0079C31.6271 54.0388 31.5385 54.0544 31.4492 54.0539V54.0539Z" fill="#223645"/>
</svg>
