<svg width="76" height="60" viewBox="0 0 76 60" fill="none" xmlns="http://www.w3.org/2000/svg">
<circle cx="28.5" cy="28.5" r="28.5" fill="#FCEEE9"/>
<g clip-path="url(#clip0)">
<path d="M62.0245 41.0035C59.1744 37.8812 53.0081 38.8567 53.0081 44.6723C53.0191 46.8537 54.0387 48.9073 55.7699 50.2345C56.3631 50.789 57.428 51.8999 61.4421 55.2783C61.7783 55.5628 62.2708 55.5628 62.607 55.2783C66.5462 51.963 67.7842 50.6971 68.2792 50.2345C70.0103 48.9073 71.03 46.8537 71.0409 44.6723C71.0409 38.8522 64.8701 37.8857 62.0245 41.0035ZM67.0467 48.9172C66.2226 49.6908 65.934 50.0695 62.0245 53.4065C58.1358 50.0876 57.8058 49.6719 57.0024 48.9172C55.9249 47.911 54.8114 46.8696 54.8114 44.6723C54.8114 42.3804 56.0169 41.0658 58.1177 41.0658C59.4235 41.0797 60.6153 41.8122 61.2176 42.9709C61.387 43.2552 61.6936 43.4293 62.0245 43.4293C62.3555 43.4293 62.662 43.2552 62.8315 42.9709C63.4337 41.8122 64.6255 41.0797 65.9313 41.0658C68.0321 41.0658 69.2376 42.3804 69.2376 44.6723C69.2376 46.8696 68.1241 47.911 67.0467 48.9172V48.9172Z" fill="#223645"/>
<path d="M65.6311 33.4541V30.9403C65.6016 22.8245 60.6067 15.5541 53.0415 12.6154C50.8512 11.7669 48.3668 12.2837 46.6967 13.9354V8.99265C46.6967 7.24979 45.2838 5.83691 43.5409 5.83691C41.7981 5.83691 40.3852 7.24979 40.3852 8.99265V13.9354C38.7146 12.284 36.2301 11.7672 34.0395 12.6154C26.4748 15.5546 21.4804 22.8248 21.4508 30.9403V44.0772C21.4504 46.0172 22.3886 47.8376 23.969 48.9628C25.5493 50.088 27.5764 50.3791 29.4096 49.744L31.7809 48.9235C38.0086 46.7679 42.1864 40.9027 42.1885 34.3125V25.1879C44.4426 23.6677 42.6267 23.6614 44.8934 25.1879V34.3125C44.8952 38.0273 46.2373 41.6168 48.6731 44.4216C47.5654 51.5982 52.3257 58.3677 59.4539 59.7528C66.5821 61.1379 73.5311 56.6437 75.1915 49.5745C76.852 42.5054 72.6305 35.3874 65.6311 33.4541V33.4541ZM46.6967 34.3125V26.131C47.2272 26.3456 47.7758 26.5128 48.3359 26.6305C48.8256 26.7216 49.2965 26.3985 49.3876 25.9087C49.4788 25.419 49.1556 24.9481 48.6659 24.857C47.1827 24.5455 45.8281 23.7939 44.7789 22.7003C44.4599 22.3546 44.0109 22.158 43.5405 22.158C43.0701 22.158 42.6211 22.3546 42.3021 22.7003C41.2537 23.7934 39.9 24.5451 38.4178 24.857C37.9281 24.9476 37.6045 25.4181 37.6952 25.9078C37.7858 26.3976 38.2563 26.7211 38.746 26.6305C39.3061 26.5128 39.8547 26.3456 40.3852 26.131V34.3125C40.383 40.1349 36.6911 45.3163 31.1885 47.2194L28.8172 48.0399C27.5356 48.4832 26.1187 48.2792 25.0142 47.4925C23.9097 46.7057 23.2539 45.4333 23.2541 44.0772V30.9403C23.2803 23.5707 27.8156 16.9685 34.685 14.2997C36.0077 13.7902 37.4982 13.9828 38.6479 14.8119C39.7976 15.6409 40.451 16.9944 40.3852 18.4103C40.399 19.1447 40.1202 19.8546 39.6103 20.3834C39.1004 20.9122 38.4013 21.2167 37.6668 21.2297C37.1688 21.2334 36.7682 21.6401 36.7719 22.1381C36.7756 22.6361 37.1823 23.0367 37.6803 23.033C40.1141 23.0051 42.0931 21.0631 42.1668 18.6303C42.2002 18.3598 42.1885 16.8378 42.1885 8.99265C42.1885 8.24571 42.794 7.64019 43.5409 7.64019C44.2879 7.64019 44.8934 8.24571 44.8934 8.99265C44.8934 16.8369 44.8817 18.3589 44.915 18.6303C44.989 21.0578 46.9597 22.9975 49.3881 23.033C49.8783 23.0205 50.2766 22.6336 50.3032 22.144C50.3103 21.6463 49.9128 21.2371 49.4151 21.2297C48.6806 21.2167 47.9815 20.9122 47.4716 20.3834C46.9617 19.8546 46.6829 19.1447 46.6967 18.4103C46.6307 16.9944 47.2839 15.641 48.4333 14.8117C49.5828 13.9825 51.0732 13.7896 52.3959 14.2988C59.2657 16.9679 63.8013 23.5703 63.8278 30.9403V33.0853C57.4021 32.2141 51.2646 36.0344 49.2096 42.1847C47.5766 39.8843 46.6985 37.1335 46.6967 34.3125V34.3125ZM62.0246 58.1969C55.5511 58.1969 50.3032 52.9491 50.3032 46.4756C50.3032 40.0021 55.5511 34.7543 62.0246 34.7543C68.4981 34.7543 73.7459 40.0021 73.7459 46.4756C73.7384 52.946 68.495 58.1894 62.0246 58.1969Z" fill="#223645"/>
<path d="M64.9269 44.1089L61.9515 47.8309L60.8605 46.7399C60.5067 46.3982 59.9443 46.4031 59.5965 46.7509C59.2488 47.0987 59.2439 47.661 59.5856 48.0148C61.5493 49.9804 61.5385 50.0823 62.0245 50.0823C62.2984 50.0824 62.5575 49.958 62.7287 49.7442L66.3352 45.236C66.6465 44.8471 66.5835 44.2795 66.1946 43.9683C65.8057 43.657 65.2381 43.72 64.9269 44.1089Z" fill="#223645"/>
</g>
<defs>
<clipPath id="clip0">
<rect width="55" height="55" fill="white" transform="translate(21 5)"/>
</clipPath>
</defs>
</svg>
