<svg width="76" height="60" viewBox="0 0 76 60" fill="none" xmlns="http://www.w3.org/2000/svg">
<circle cx="28.5" cy="28.5" r="28.5" fill="#FCEEE9"/>
<g clip-path="url(#clip0)">
<path d="M68.674 45.9766C68.3495 43.7833 65.5204 40.0879 61.901 37.1028C61.9235 36.9259 61.9355 36.7465 61.9355 36.5647C61.9355 34.8279 60.9007 33.2682 59.2388 32.3385C61.8394 30.7732 63.5478 28.7068 64.203 26.3162C64.3208 25.8866 64.0681 25.4428 63.6384 25.3251C63.2082 25.2076 62.7649 25.4601 62.6473 25.8897C61.2626 30.9411 54.3483 33.4294 48.5 33.6068C44.7516 33.4933 41.0988 32.5016 38.4744 30.8843C36.4827 29.6569 34.1085 27.4739 34.1085 24.0442C34.1085 16.1087 40.5645 9.65267 48.5 9.65267C55.9809 9.65267 62.284 15.4884 62.8497 22.9383C62.8833 23.3824 63.2715 23.7152 63.715 23.6815C64.1592 23.6479 64.4919 23.2604 64.4582 22.8162C64.3454 21.3306 64.0277 19.8844 63.5229 18.5124C65.7136 17.2168 67.0949 14.8354 67.0949 12.2594C67.0949 8.2565 63.8384 5 59.8355 5C57.1353 5 54.6994 6.47747 53.4422 8.81886C51.8624 8.30694 50.1978 8.03969 48.5 8.03969C46.7763 8.03969 45.1158 8.31468 43.5589 8.82133C42.3019 6.47887 39.864 5 37.1645 5C33.1617 5 29.9052 8.2565 29.9052 12.2594C29.9052 14.8346 31.2885 17.2191 33.4805 18.5143C32.8436 20.2385 32.4953 22.1015 32.4953 24.0443C32.4953 27.6573 34.6193 30.4469 37.7619 32.337C36.0987 33.2655 35.0643 34.8239 35.0643 36.5647C35.0643 36.7462 35.0762 36.9255 35.0987 37.1023C31.4744 40.0914 28.6516 43.7764 28.3261 45.9766C27.8407 49.2579 29.3822 51.5365 32.5689 52.3068C32.6223 52.7385 32.7054 53.1731 32.8219 53.6077C33.3922 55.7359 34.6447 57.5505 36.3487 58.7172C37.5857 59.5641 38.954 60 40.3222 59.9999C40.8814 59.9999 41.441 59.927 41.9911 59.7796C43.4916 59.3776 44.7719 58.4598 45.6937 57.151C46.5955 57.3489 47.5367 57.4502 48.5 57.4502C49.4633 57.4502 50.4045 57.3489 51.3063 57.151C52.2281 58.4598 53.5083 59.3775 55.0088 59.7795C55.5591 59.927 56.1184 59.9998 56.6778 59.9998C58.0459 59.9998 59.4144 59.5639 60.6513 58.7171C62.3553 57.5503 63.6078 55.7358 64.1781 53.6076C64.2946 53.1729 64.3777 52.7382 64.4311 52.3065C67.6171 51.5364 69.159 49.2562 68.674 45.9766V45.9766ZM58.6353 11.6582C58.8592 11.216 59.3198 10.915 59.8355 10.915C60.5768 10.915 61.1798 11.5181 61.1798 12.2594C61.1798 12.758 60.9027 13.2038 60.4839 13.4356C60.1433 13.0514 59.7831 12.6817 59.4035 12.3283C59.1539 12.0958 58.8973 11.8728 58.6353 11.6582V11.6582ZM59.8355 6.61319C62.9488 6.61319 65.4817 9.14601 65.4817 12.2594C65.4817 14.1921 64.4821 15.9841 62.8819 17.0132C62.4875 16.2072 62.0244 15.4344 61.4969 14.7022C62.2853 14.1637 62.793 13.2598 62.793 12.2594C62.793 10.6285 61.4663 9.30185 59.8355 9.30185C58.7981 9.30185 57.8602 9.85464 57.3305 10.6936C56.5776 10.1945 55.7863 9.76279 54.9655 9.40015C55.9696 7.68554 57.8066 6.61319 59.8355 6.61319ZM36.5238 13.44C36.1006 13.2096 35.8202 12.7618 35.8202 12.2594C35.8202 11.5181 36.4232 10.915 37.1645 10.915C37.682 10.915 38.145 11.219 38.368 11.6646C37.707 12.2066 37.0905 12.8007 36.5238 13.44ZM31.5184 12.2594C31.5184 9.14601 34.0512 6.61319 37.1645 6.61319C39.1937 6.61319 41.033 7.68758 42.0368 9.40423C41.2101 9.77064 40.4201 10.205 39.6737 10.7004C39.1443 9.85776 38.2033 9.30185 37.1645 9.30185C35.5337 9.30185 34.207 10.6285 34.207 12.2594C34.207 13.2641 34.7171 14.1695 35.5094 14.707C34.9856 15.4337 34.5213 16.2059 34.1234 17.0164C32.5207 15.9876 31.5184 14.1925 31.5184 12.2594V12.2594ZM60.3223 36.5648C60.3223 38.492 58.272 40.0601 55.7516 40.0601C54.6829 40.0601 53.6565 39.7709 52.8412 39.253C53.3269 38.4716 53.6083 37.5507 53.6083 36.5648C53.6083 35.8981 53.4806 35.2483 53.2344 34.643C54.7077 34.3196 56.1077 33.8679 57.3817 33.3008C59.1493 33.8191 60.3223 35.1101 60.3223 36.5648ZM48.5 35.2205C48.5079 35.2205 48.5157 35.2204 48.5236 35.2202C49.5605 35.1898 50.5892 35.0954 51.5953 34.9444C51.8565 35.4419 51.995 35.9939 51.995 36.5649C51.995 38.4922 50.427 40.0602 48.4998 40.0602C46.5726 40.0602 45.0045 38.4922 45.0045 36.5649C45.0045 35.9941 45.1428 35.4426 45.4038 34.9454C46.4178 35.0978 47.4478 35.1902 48.4762 35.2203C48.4843 35.2204 48.4922 35.2205 48.5 35.2205V35.2205ZM39.62 33.3006C40.9092 33.8746 42.3096 34.3231 43.7653 34.6431C43.5192 35.2485 43.3916 35.8981 43.3916 36.5648C43.3916 37.5506 43.673 38.4715 44.1586 39.2529C43.3434 39.7709 42.3176 40.0601 41.2483 40.0601C38.7279 40.0601 36.6776 38.492 36.6776 36.5648C36.6774 35.1302 37.8758 33.8149 39.62 33.3006V33.3006ZM29.922 46.2127C30.144 44.7119 32.3204 41.6044 35.6558 38.7424C36.1329 39.5753 36.874 40.2855 37.7903 40.7979C37.4251 41.8406 37.1747 42.8748 37.0449 43.885C34.4124 44.8942 32.6967 47.5602 32.5148 50.6205C30.4562 49.9752 29.5841 48.4963 29.922 46.2127V46.2127ZM46.5122 55.6679C47.2585 53.8882 47.3789 51.8387 46.8461 49.8499C46.5771 48.8463 46.156 47.9095 45.5944 47.0655C45.3476 46.6947 44.847 46.594 44.4761 46.8409C44.1052 47.0876 44.0046 47.5883 44.2514 47.9592C44.7157 48.6569 45.0643 49.4335 45.2878 50.2675C45.7584 52.0241 45.6178 53.8259 44.8917 55.3413C44.1859 56.8145 43.0075 57.8374 41.5737 58.2215C40.14 58.6058 38.608 58.3091 37.2602 57.3862C35.8738 56.4369 34.851 54.9467 34.3804 53.1903C33.4212 49.6102 35.0873 46.0421 38.0945 45.2364C39.4229 44.8802 40.8588 45.1147 42.1372 45.8964C42.5173 46.1288 43.0138 46.009 43.2462 45.6289C43.4786 45.2489 43.3588 44.7524 42.9787 44.52C41.6492 43.7073 40.1764 43.3551 38.7381 43.4892C38.8606 42.8065 39.0444 42.111 39.2864 41.4084C39.9033 41.5794 40.5625 41.6734 41.2482 41.6734C42.7071 41.6734 44.1174 41.2437 45.2233 40.4801C46.111 41.2243 47.2538 41.6734 48.4999 41.6734C49.746 41.6734 50.8888 41.2243 51.7765 40.4803C52.8824 41.2435 54.2934 41.6733 55.7516 41.6733C56.4375 41.6733 57.0967 41.5792 57.7137 41.4082C57.9555 42.11 58.139 42.8049 58.2615 43.4868C56.6943 43.338 55.1009 43.768 53.6807 44.7405C51.9768 45.9071 50.7243 47.7218 50.154 49.8499C49.6211 51.8386 49.7415 53.888 50.4878 55.6679C49.8443 55.7794 49.1793 55.837 48.5 55.837C47.8207 55.8371 47.1558 55.7795 46.5122 55.6679V55.6679ZM62.6199 53.1902C62.1492 54.9466 61.1265 56.4368 59.74 57.3861C58.3922 58.3089 56.8602 58.6055 55.4264 58.2214C53.9926 57.8374 52.8142 56.8144 52.1084 55.3412C51.3824 53.8259 51.2416 52.0239 51.7123 50.2674C52.1829 48.5109 53.2057 47.0208 54.5922 46.0715C55.9399 45.1485 57.4718 44.852 58.9057 45.2362C61.913 46.042 63.5792 49.6102 62.6199 53.1902V53.1902ZM64.4854 50.6201C64.3033 47.56 62.5876 44.8941 59.9551 43.885C59.8253 42.8749 59.5752 41.8406 59.2099 40.7977C60.1262 40.2852 60.8673 39.5748 61.3442 38.742C64.6785 41.6041 66.857 44.7187 67.078 46.2128C67.4159 48.496 66.5436 49.9747 64.4854 50.6201V50.6201Z" fill="#223645"/>
<path d="M48.5 31.9941C52.0783 31.9941 54.9896 29.0829 54.9896 25.5045C54.9896 23.5087 54.0667 21.6265 52.5054 20.3996C52.289 19.2618 50.7657 18.542 48.5 18.542C46.2343 18.542 44.7112 19.2618 44.4947 20.3996C42.9333 21.6265 42.0105 23.5086 42.0105 25.5045C42.0105 29.0829 44.9217 31.9941 48.5 31.9941ZM48.5 20.1552C49.963 20.1552 50.7902 20.5361 50.9197 20.7109C50.9058 22.0333 49.8257 23.1047 48.5 23.1047C47.1743 23.1047 46.0943 22.0334 46.0803 20.7109C46.2098 20.5361 47.0371 20.1552 48.5 20.1552V20.1552ZM44.8127 22.3156C45.4402 23.7292 46.8564 24.7179 48.5 24.7179C50.1436 24.7179 51.5598 23.7291 52.1873 22.3156C52.9449 23.1927 53.3763 24.3221 53.3763 25.5045C53.3763 28.1933 51.1888 30.3809 48.4999 30.3809C45.811 30.3809 43.6236 28.1934 43.6236 25.5045C43.6237 24.3221 44.0551 23.1927 44.8127 22.3156V22.3156Z" fill="#223645"/>
<path d="M42.5905 19.3486C42.5905 18.9031 42.2294 18.542 41.784 18.542C41.3385 18.542 40.9774 18.9031 40.9774 19.3486V20.6391C40.9774 21.0846 41.3385 21.4457 41.784 21.4457C42.2294 21.4457 42.5905 21.0846 42.5905 20.6391V19.3486Z" fill="#223645"/>
<path d="M56.0228 20.6391V19.3486C56.0228 18.9031 55.6616 18.542 55.2162 18.542C54.7707 18.542 54.4096 18.9031 54.4096 19.3486V20.6391C54.4096 21.0846 54.7707 21.4457 55.2162 21.4457C55.6616 21.4457 56.0228 21.0847 56.0228 20.6391Z" fill="#223645"/>
<path d="M48.5 28.8658C49.4117 28.8658 50.2787 28.471 50.8787 27.7825C51.1714 27.4466 51.1364 26.9372 50.8006 26.6444C50.4648 26.3517 49.9553 26.3865 49.6626 26.7225C49.369 27.0593 48.9452 27.2525 48.4999 27.2525C48.0545 27.2525 47.6308 27.0593 47.3372 26.7225C47.0445 26.3866 46.5349 26.3517 46.1992 26.6444C45.8633 26.9372 45.8283 27.4466 46.1211 27.7825C46.7213 28.4709 47.5883 28.8658 48.5 28.8658Z" fill="#223645"/>
</g>
<defs>
<clipPath id="clip0">
<rect width="55" height="55" fill="white" transform="translate(21 5)"/>
</clipPath>
</defs>
</svg>
